<?xml version="1.0" encoding="utf-8"?>
<!-- Generator: Adobe Illustrator 27.5.0, SVG Export Plug-In . SVG Version: 6.00 Build 0)  -->
<svg version="1.1" xmlns="http://www.w3.org/2000/svg" xmlns:xlink="http://www.w3.org/1999/xlink" x="0px" y="0px"
	 viewBox="0 0 500 500" style="enable-background:new 0 0 500 500;" xml:space="preserve">
<g id="BACKGROUND">
	<rect style="fill:#96B3FF;" width="500" height="500"/>
</g>
<g id="OBJECTS">
	<g>
		<path style="fill:#BFCFF9;" d="M353.652,500l-25.658-241.167C314.995,227.766,250,228.654,250,228.654
			s-64.995-0.888-77.994,30.179L146.348,500H353.652z"/>
		<polygon style="fill:#B2C1E8;" points="303.723,500 281.062,257.28 291.672,500 		"/>
		<polygon style="fill:#B2C1E8;" points="218.882,500 218.938,257.28 196.277,500 		"/>
		<path style="fill:#D9E3FB;" d="M250,257.28c27.128,0,50.867-5.577,64.24-13.94C290.832,228.1,250,228.654,250,228.654
			s-40.832-0.554-64.24,14.686C199.133,251.704,222.872,257.28,250,257.28z"/>
		<linearGradient id="SVGID_1_" gradientUnits="userSpaceOnUse" x1="222.5081" y1="205.3417" x2="264.8298" y2="259.4195">
			<stop  offset="0" style="stop-color:#EBAEAF"/>
			<stop  offset="1" style="stop-color:#E19598"/>
		</linearGradient>
		<path style="fill:url(#SVGID_1_);" d="M268.474,225.359l-4.181-14.293h-28.587l-4.181,14.293
			c-0.785,2.686-3.449,4.713-6.767,5.198c-10.941,1.598-23.601,4.532-34.015,9.914c11.031,8.403,33.397,14.165,59.256,14.165
			s48.226-5.762,59.256-14.165c-10.414-5.382-23.074-8.316-34.015-9.914C271.923,230.072,269.26,228.044,268.474,225.359z"/>
		<path style="fill:#F7F7F7;" d="M196.277,500l25.107-268.92c-19.186,3.199-42.201,10.602-49.378,27.753L135.888,500H196.277z"/>
		<polygon style="fill:#E6E6E6;" points="170.647,314.695 160.507,394.49 200.742,389.062 195.334,423.365 181.888,421.382 
			143.993,445.885 161.905,326.279 		"/>
		<path style="fill:#F7F7F7;" d="M364.112,500l-36.118-241.167c-7.176-17.151-30.192-24.554-49.378-27.753L303.723,500H364.112z"/>
		<polygon style="fill:#EBEBEB;" points="278.616,231.08 309.618,276.926 300.171,301.911 303.214,275.46 		"/>
		<polygon style="fill:#EBEBEB;" points="221.384,231.08 191.244,279.207 199.828,301.911 196.786,275.46 		"/>
		<polygon style="fill:#E6E6E6;" points="329.353,314.695 339.493,394.49 299.258,389.062 304.666,423.365 318.112,421.382 
			356.007,445.885 338.094,326.279 		"/>
		<g>
			<path style="fill:#271F36;" d="M295.05,272.194c0.208-3.32,0.424-6.754,0.59-10.513c0.223-5.044,0.006-9.668-0.639-13.902
				c-1.215,0.436-2.47,0.856-3.766,1.256c0.53,3.798,0.696,7.947,0.496,12.474c-0.164,3.722-0.379,7.138-0.586,10.44
				c-1.222,19.431-2.029,32.268,11.492,53.3l3.291-2.115C293.101,303.18,293.835,291.517,295.05,272.194z"/>
			<path style="fill:#271F36;" d="M211.922,226.406l3.64,1.433c0.043-0.11,3.495-8.309,18.402-10.817l1.209-4.134
				C216.56,215.312,212.143,225.845,211.922,226.406z"/>
			<path style="fill:#271F36;" d="M284.959,232.286c1.807,0.382,3.627,0.801,5.447,1.268c-4.849-8.855-13.062-14.838-24.848-18.165
				l1.312,4.487C274.882,222.523,280.862,226.612,284.959,232.286z"/>
			<path style="fill:#271F36;" d="M290.406,233.554c-1.821-0.467-3.64-0.886-5.447-1.268c3.277,4.539,5.348,10.095,6.276,16.748
				c1.296-0.401,2.551-0.82,3.766-1.256C294.183,242.402,292.658,237.667,290.406,233.554z"/>
		</g>
		<g>
			<path style="fill:#271F36;" d="M233.869,281.807l-3.884-0.468c5.91-48.947-13.817-52.207-14.017-52.234l-0.336-0.073
				c-0.174-0.049-19.549-4.983-33.787,42.219l-3.746-1.13c4.693-15.56,13.098-35.603,26.485-42.725
				c6.278-3.342,11.052-2.398,12.028-2.15c0.993,0.164,5.744,1.219,10.153,6.798C236.166,243.941,235.817,265.672,233.869,281.807z"
				/>
			<path style="fill:#5E6DAD;" d="M187.493,299.455c-1.506,0.132-4.708-0.089-9.565-2.939c-3.435-2.016-4.275-7.303-2.643-16.639
				c1.066-6.097,2.818-11.675,2.892-11.909l4.664,1.473c-3.384,10.726-4.546,21.622-2.438,22.859
				c4.383,2.572,6.616,2.315,6.638,2.302l1.344,4.703C188.239,299.345,187.941,299.415,187.493,299.455z"/>
			<path style="fill:#505D94;" d="M188.386,299.303l-1.344-4.703c-0.011,0.006-0.577,0.074-1.69-0.184
				c-0.409,0.744-0.689,1.67-0.756,2.697c-0.051,0.779,0.036,1.51,0.209,2.169c1.175,0.218,2.075,0.226,2.689,0.172
				C187.941,299.415,188.239,299.345,188.386,299.303z"/>
			<path style="fill:#322845;" d="M193.716,296.224c0.158,2.555-3.698,5.285-5.316,5.385c-1.617,0.1-3.057-1.89-3.214-4.444
				c-0.158-2.555,1.025-4.706,2.643-4.806C189.446,292.259,193.559,293.67,193.716,296.224z"/>
			<path style="fill:#1B1526;" d="M192.762,294.332c0.165,0.313,0.275,0.647,0.298,1.008c0.154,2.492-3.607,5.155-5.185,5.253
				c-0.888,0.055-1.712-0.55-2.298-1.522c0.561,1.563,1.642,2.612,2.824,2.539c1.617-0.1,5.474-2.831,5.316-5.385
				C193.671,295.497,193.299,294.866,192.762,294.332z"/>
			<g>
				<path style="fill:#5E6DAD;" d="M213.403,304.231c1.329,0.722,4.354,1.795,9.944,1.117c3.954-0.48,6.831-4.994,9.055-14.207
					c1.452-6.017,2.069-11.831,2.094-12.075l-4.864-0.508c-1.172,11.186-4.448,21.642-6.875,21.936
					c-5.045,0.612-6.991-0.514-7.005-0.534l-3.107,3.777C212.763,303.833,213.008,304.016,213.403,304.231z"/>
				<path style="fill:#505D94;" d="M212.645,303.736l3.107-3.778c0.007,0.01,0.5,0.298,1.623,0.505
					c0.078,0.845-0.033,1.806-0.381,2.775c-0.264,0.735-0.635,1.371-1.056,1.906c-1.164-0.269-1.993-0.62-2.535-0.914
					C213.008,304.016,212.763,303.833,212.645,303.736z"/>
				<path style="fill:#322845;" d="M208.983,298.788c-1.163,2.28,1.285,6.322,2.729,7.058s3.557-0.515,4.719-2.795
					c1.163-2.28,0.935-4.725-0.508-5.461C214.48,296.853,210.146,296.508,208.983,298.788z"/>
				<path style="fill:#1B1526;" d="M210.613,297.433c-0.276,0.221-0.511,0.484-0.675,0.806c-1.134,2.224,1.254,6.166,2.662,6.884
					c0.793,0.404,1.789,0.178,2.714-0.48c-1.138,1.21-2.547,1.741-3.602,1.203c-1.444-0.736-3.892-4.778-2.729-7.058
					C209.314,298.138,209.907,297.708,210.613,297.433z"/>
			</g>
		</g>
		<g>
			<path style="fill:#FFFFFF;" d="M265.794,293.819h-31.588c-4.009,0-7.27-3.262-7.27-7.27c0-4.008,3.261-7.27,7.27-7.27h31.588
				c4.008,0,7.269,3.262,7.269,7.27C273.063,290.558,269.802,293.819,265.794,293.819z M234.207,281.925
				c-2.55,0-4.625,2.074-4.625,4.625c0,2.55,2.075,4.625,4.625,4.625h31.588c2.549,0,4.624-2.074,4.624-4.625
				c0-2.55-2.074-4.625-4.624-4.625H234.207z"/>
			<path style="fill:#5E6DAD;" d="M277.856,284.966h-55.713c-0.875,0-1.584,0.709-1.584,1.584l0,0c0,0.875,0.709,1.584,1.584,1.584
				h55.713c0.875,0,1.584-0.709,1.584-1.584l0,0C279.44,285.675,278.731,284.966,277.856,284.966z"/>
			<path style="opacity:0.25;fill:#B3B3B3;" d="M297.367,287.431h-94.734c-4.644,0-8.563,3.628-8.756,8.132l-6.434,150.408
				c-0.241,5.636,3.814,10.237,9.059,10.237h106.996c5.245,0,9.3-4.601,9.059-10.237l-6.434-150.408
				C305.931,291.06,302.011,287.431,297.367,287.431z"/>
			<path style="fill:#7487D6;" d="M300.631,287.431H199.369c-4.964,0-8.987,4.024-8.987,8.988V444.63
				c0,4.964,4.024,8.988,8.987,8.988h101.262c4.964,0,8.987-4.024,8.987-8.988V296.419
				C309.618,291.455,305.594,287.431,300.631,287.431z"/>
			<path style="fill:#8C9BDD;" d="M300.631,287.431H199.369c-4.964,0-8.987,4.024-8.987,8.988v2.645
				c0-4.964,4.024-8.987,8.987-8.987h101.262c4.964,0,8.987,4.024,8.987,8.987v-2.645
				C309.618,291.455,305.594,287.431,300.631,287.431z"/>
		</g>
		<path style="fill:#6A7CC4;" d="M220.555,397.679c-5.462-15.574-20.036-9.934-30.173-3.538v24.669
			C203.496,418.629,226.925,415.841,220.555,397.679z"/>
		<g>
			
				<ellipse transform="matrix(0.7071 -0.7071 0.7071 0.7071 36.9206 227.2269)" style="fill:#271F36;" cx="292.752" cy="69.046" rx="44.67" ry="42.164"/>
			<path style="fill:#322845;" d="M307.9,32.243l-1.43-0.194l-1.397-0.241c-0.945-0.092-1.876-0.207-2.806-0.275
				c-0.935-0.043-1.856-0.139-2.78-0.158c-0.928,0.02-1.843-0.056-2.762-0.017l-1.375,0.071c-0.457,0.022-0.913,0.006-1.368,0.066
				c-0.909,0.103-1.821,0.136-2.72,0.292c-1.806,0.235-3.598,0.552-5.358,1.011c-1.773,0.405-3.51,0.957-5.223,1.58
				c-1.728,0.594-3.388,1.361-5.062,2.129c-1.652,0.812-3.28,1.694-4.886,2.655c-0.794,0.491-1.613,0.966-2.406,1.484
				c-0.758,0.557-1.55,1.089-2.369,1.609l-0.138-0.138c5.367-5.405,12.201-9.373,19.618-11.216
				c7.415-1.801,15.362-1.467,22.528,1.161L307.9,32.243z"/>
			<path style="fill:#1B1526;" d="M324.338,37.459c-0.557-0.557-1.13-1.091-1.712-1.609c14.781,16.606,13.473,42.835-3.381,59.689
				c-16.854,16.854-43.083,18.161-59.69,3.381c0.518,0.582,1.052,1.154,1.609,1.712c16.466,16.466,43.956,15.673,61.401-1.772
				C340.011,81.415,340.804,53.925,324.338,37.459z"/>
			<path style="fill:#1B1526;" d="M256.401,47.411c-6.186,9.785-8.332,21.248-6.368,31.906
				c5.132,20.584,25.668,34.605,48.308,31.988c1.936-0.224,3.824-0.575,5.669-1.021c6.735-2.186,13.132-5.998,18.557-11.424
				c2.732-2.732,5.055-5.711,6.968-8.854C316.069,63.35,287.723,46.038,256.401,47.411z"/>
			<path style="fill:#FFFFFF;" d="M327.001,98.45c-9.825-29.588-37.143-51.3-69.827-53.115c-5.702,7.156-9.092,16.08-9.092,25.763
				c0,23.537,19.999,42.618,44.67,42.618C306.508,113.716,318.807,107.779,327.001,98.45z"/>
			<path style="fill:#D6D6D6;" d="M324.963,93.014c-8.189,8.963-20.228,14.64-33.669,14.64c-20.092,0-37.083-12.656-42.698-30.067
				c3.275,20.458,21.797,36.129,44.156,36.129c13.756,0,26.055-5.937,34.249-15.266C326.389,96.606,325.708,94.793,324.963,93.014z"
				/>
			<ellipse style="fill:#271F36;" cx="250.598" cy="126.824" rx="74.946" ry="82.614"/>
			<path style="fill:#1B1526;" d="M250.598,44.21c-4.72,0-9.331,0.504-13.81,1.424c2.012-0.182,4.04-0.299,6.095-0.299
				c40.691,0,73.677,36.362,73.677,81.216s-32.986,81.216-73.677,81.216c-3.676,0-7.287-0.307-10.818-0.88
				c5.928,1.663,12.136,2.551,18.534,2.551c41.392,0,74.946-36.988,74.946-82.614C325.544,81.197,291.989,44.21,250.598,44.21z"/>
			
				<linearGradient id="SVGID_00000119799960379767599920000012371333896345873537_" gradientUnits="userSpaceOnUse" x1="303.214" y1="145.373" x2="323.3975" y2="145.373">
				<stop  offset="0" style="stop-color:#EBAEAF"/>
				<stop  offset="1" style="stop-color:#E19598"/>
			</linearGradient>
			
				<ellipse style="fill:url(#SVGID_00000119799960379767599920000012371333896345873537_);" cx="313.306" cy="145.373" rx="10.092" ry="18.706"/>
			
				<linearGradient id="SVGID_00000176003344519080438940000006704937070816200331_" gradientUnits="userSpaceOnUse" x1="175.812" y1="145.373" x2="195.9955" y2="145.373">
				<stop  offset="0" style="stop-color:#EBAEAF"/>
				<stop  offset="1" style="stop-color:#E19598"/>
			</linearGradient>
			
				<ellipse style="fill:url(#SVGID_00000176003344519080438940000006704937070816200331_);" cx="185.904" cy="145.373" rx="10.092" ry="18.706"/>
			<path style="fill:#D17F81;" d="M187.473,149.965c-1.026-1.949-1.971-3.928-3.052-5.818c-0.265-0.475-0.551-0.935-0.855-1.378
				c-0.309-0.419-0.639-0.891-1.043-1.104c-0.224-0.096-0.459-0.152-0.666-0.08c-0.206,0.07-0.375,0.268-0.486,0.501
				c-0.239,0.465-0.327,1.019-0.383,1.563c-0.055-0.549-0.025-1.111,0.159-1.663c0.099-0.268,0.281-0.55,0.589-0.693
				c0.311-0.14,0.65-0.08,0.934,0.016c0.61,0.261,0.916,0.755,1.281,1.183c0.329,0.454,0.627,0.926,0.904,1.406
				c0.545,0.965,1.032,1.956,1.461,2.972C186.748,147.885,187.15,148.911,187.473,149.965z"/>
			<path style="fill:#D17F81;" d="M179.155,144.878c-0.178-2.139-0.215-4.317,0.268-6.455c0.128-0.532,0.293-1.064,0.573-1.559
				c0.279-0.48,0.689-0.98,1.303-1.147c0.287-0.092,0.622-0.099,0.926,0.007c0.305,0.096,0.547,0.284,0.759,0.478
				c0.423,0.397,0.731,0.865,1.012,1.337c1.044,1.936,1.666,4.015,2.22,6.096c0.538,2.087,0.951,4.202,1.256,6.331
				c-0.487-2.094-1.028-4.172-1.627-6.228c-0.623-2.04-1.248-4.115-2.283-5.95c-0.259-0.452-0.547-0.893-0.904-1.237
				c-0.364-0.342-0.775-0.553-1.237-0.397c-0.448,0.109-0.795,0.496-1.052,0.925c-0.252,0.44-0.431,0.936-0.577,1.441
				c-0.284,1.016-0.422,2.081-0.511,3.145C179.184,142.729,179.14,143.803,179.155,144.878z"/>
			<path style="fill:#D17F81;" d="M182.312,153.537c0.313,0.58,0.647,1.149,1.054,1.654c0.388,0.488,0.888,1.019,1.44,1.032
				c0.265-0.001,0.498-0.162,0.694-0.382c0.193-0.21,0.294-0.478,0.353-0.779c0.112-0.601,0.052-1.253-0.035-1.888
				c-0.166-1.281-0.514-2.548-0.876-3.806c-0.363-1.26-0.775-2.508-1.186-3.762c0.607,1.174,1.112,2.397,1.557,3.643
				c0.433,1.25,0.799,2.53,0.997,3.859c0.073,0.667,0.128,1.348-0.016,2.044c-0.127,0.676-0.65,1.461-1.5,1.443
				c-0.811-0.108-1.243-0.738-1.618-1.266C182.82,154.76,182.528,154.162,182.312,153.537z"/>
			<circle style="fill:#E8E8E8;" cx="185.149" cy="164.027" r="5.564"/>
			<ellipse style="fill:#EBAEAF;" cx="248.835" cy="135.676" rx="63.909" ry="80.335"/>
			<path style="fill:#FA9FA1;" d="M248.234,212.324c-22.964,0-43.147-14.51-54.729-36.423c11.057,23.979,31.694,40.11,55.33,40.11
				c30.91,0,56.694-27.584,62.625-64.237C304.531,186.523,278.855,212.324,248.234,212.324z"/>
			<path style="fill:#D17F81;" d="M220.582,207.754c10.228,6.177,22.443,9.047,34.244,7.509c2.935-0.413,5.86-0.962,8.689-1.856
				c1.435-0.376,2.806-0.956,4.206-1.439c1.355-0.602,2.747-1.12,4.057-1.819c5.338-2.595,10.207-6.09,14.563-10.113
				c4.367-4.021,8.176-8.633,11.472-13.577c3.257-4.976,5.945-10.311,8.165-15.833c2.192-5.536,3.81-11.298,4.924-17.154
				c1.143-5.854,1.72-11.818,1.842-17.795c0.189,11.956-1.81,23.988-6.049,35.227c-2.126,5.616-4.869,10.999-8.121,16.054
				c-3.308,5.016-7.14,9.711-11.555,13.811c-8.809,8.169-20.082,13.938-32.103,15.255c-5.986,0.622-12.081,0.311-17.915-1.145
				C231.167,213.44,225.608,210.991,220.582,207.754z"/>
			<path style="fill:#271F36;" d="M248.835,55.341c-1.635,0-3.251,0.103-4.855,0.254c-5.576,4.314-9.886,9.693-12.439,15.74
				c4.696,6.067,7.423,13.242,7.423,20.939c0,4.477-0.932,8.774-2.625,12.784c8.575,11.078,23.741,18.445,41.033,18.445
				c12.652,0,27.929-4.414,36.559-10.869C306.169,79.26,277.894,55.341,248.835,55.341z"/>
			<path style="fill:#271F36;" d="M236.339,105.059c-4.696-6.067-7.423-13.242-7.423-20.939c0-4.477,0.932-8.774,2.625-12.784
				c-2.535-3.274-5.645-6.221-9.217-8.752c-21.085,12.104-36.028,38.177-37.306,68.818c1.803,0.165,3.633,0.259,5.491,0.259
				C211.762,131.659,229.806,120.533,236.339,105.059z"/>
			<path style="fill:#271F36;" d="M236.339,105.059c1.693-4.01,2.625-8.307,2.625-12.784c0-7.697-2.727-14.873-7.423-20.939
				c-1.693,4.01-2.625,8.308-2.625,12.784C228.916,91.817,231.643,98.992,236.339,105.059z"/>
			<path style="fill:#271F36;" d="M300.171,107.632v46.773c0,0,8.158-29.589,15.522-33.898
				C315.694,120.507,300.171,78.033,300.171,107.632z"/>
			<path style="fill:#271F36;" d="M198.141,107.632v46.773c0,0-9.804-29.75-17.169-34.06
				C180.972,120.346,198.141,78.033,198.141,107.632z"/>
			
				<ellipse transform="matrix(0.7071 -0.7071 0.7071 0.7071 -15.9474 159.879)" style="fill:#271F36;" cx="185.017" cy="99.19" rx="32.211" ry="32.211"/>
			
				<ellipse transform="matrix(0.7071 -0.7071 0.7071 0.7071 10.2539 158.225)" style="fill:#271F36;" cx="196.121" cy="66.735" rx="23.063" ry="23.063"/>
			<ellipse style="fill:#271F36;" cx="223.224" cy="55.341" rx="19.278" ry="14.379"/>
			<ellipse style="fill:#271F36;" cx="249.241" cy="77.585" rx="46.371" ry="27.475"/>
			<circle style="fill:#E8E8E8;" cx="313.306" cy="164.027" r="5.564"/>
			<path style="fill:#FFFFFF;" d="M313.789,160.193c-0.32-0.705-1.499-0.859-2.632-0.344c-1.134,0.515-1.793,1.504-1.473,2.208
				s1.499,0.859,2.632,0.344C313.449,161.886,314.109,160.898,313.789,160.193z"/>
			<path style="fill:#FFFFFF;" d="M186.068,160.621c-0.32-0.705-1.499-0.859-2.632-0.344c-1.134,0.515-1.793,1.504-1.473,2.208
				c0.32,0.705,1.499,0.859,2.632,0.344C185.729,162.315,186.389,161.326,186.068,160.621z"/>
			
				<linearGradient id="SVGID_00000161617755061565885190000008875191196842013599_" gradientUnits="userSpaceOnUse" x1="244.5905" y1="150.0233" x2="241.8963" y2="175.618">
				<stop  offset="0" style="stop-color:#EBAEAF"/>
				<stop  offset="1" style="stop-color:#E19598"/>
			</linearGradient>
			<path style="fill:url(#SVGID_00000161617755061565885190000008875191196842013599_);" d="M241.52,141.422l-8.434,30.017
				l4.9,2.689h13.317c0,0-2.874-3.563-11.469-3.563L241.52,141.422z"/>
			<path style="fill:#5E6DAD;" d="M268.595,151.204h11.365c0-6.235-4.87-8.285-11.105-8.285c-6.235,0-11.626,2.051-11.626,8.285
				c0,0.729,0.07,1.455,0.209,2.171L268.595,151.204z"/>
			<path style="fill:#5E6DAD;" d="M219.185,151.204h-11.365c0-6.235,5.391-8.285,11.626-8.285s11.105,2.051,11.105,8.285
				c0,0.729-0.07,1.455-0.209,2.171L219.185,151.204z"/>
			<path style="fill:#FFFFFF;" d="M244.151,200.447c8.939,0,16.186-7.412,16.186-16.555h-32.373
				C227.964,193.035,235.211,200.447,244.151,200.447z"/>
			<path style="fill:#D1585B;" d="M228.014,183.892c0.34,4.277,2.081,8.284,4.929,11.348c1.393,1.55,3.075,2.906,5.016,3.774
				c1.939,0.865,4.086,1.244,6.191,1.159c2.108-0.099,4.17-0.596,6.07-1.443c1.901-0.849,3.607-2.091,5.054-3.572
				c2.929-2.952,4.698-6.995,5.013-11.267h0.1c0.335,4.308-1.287,8.804-4.346,12.008c-3.05,3.21-7.52,5.037-11.89,4.821
				c-2.182-0.089-4.319-0.583-6.319-1.409c-2.002-0.813-3.906-1.958-5.487-3.494c-3.141-3.091-4.79-7.623-4.43-11.927H228.014z"/>
			
				<radialGradient id="SVGID_00000088829269030100265910000000206585551691798927_" cx="281.6348" cy="173.2819" r="15.7286" gradientTransform="matrix(0.5789 -0.8154 0.4385 0.3113 47.4936 350.1305)" gradientUnits="userSpaceOnUse">
				<stop  offset="0" style="stop-color:#E19598"/>
				<stop  offset="1" style="stop-color:#EBAEAF"/>
			</radialGradient>
			<path style="opacity:0.5;fill:url(#SVGID_00000088829269030100265910000000206585551691798927_);" d="M298.492,163.476
				c3.936,2.83,3.07,10.766-1.934,17.726c-5.004,6.96-12.252,10.308-16.188,7.478c-3.936-2.83-3.07-10.766,1.934-17.726
				C287.309,163.994,294.556,160.646,298.492,163.476z"/>
			
				<radialGradient id="SVGID_00000119801458825290232730000003556181098966316172_" cx="217.9681" cy="144.4599" r="17.0928" gradientTransform="matrix(-0.4559 -0.89 -0.4786 0.2452 379.017 334.401)" gradientUnits="userSpaceOnUse">
				<stop  offset="0" style="stop-color:#E19598"/>
				<stop  offset="1" style="stop-color:#EBAEAF"/>
			</radialGradient>
			<path style="opacity:0.5;fill:url(#SVGID_00000119801458825290232730000003556181098966316172_);" d="M199.326,162.191
				c-4.674,2.43-4.98,11.1-0.683,19.365c4.297,8.265,11.569,12.996,16.243,10.566c4.674-2.43,4.98-11.1,0.683-19.365
				C211.272,164.492,204,159.761,199.326,162.191z"/>
			<path style="fill:#322845;" d="M228.965,78.691c0.468,3.127,1.496,6.141,2.779,8.993c1.272,2.861,2.847,5.58,4.743,8.048
				c1.921,2.445,4.048,4.726,6.462,6.681c2.405,1.963,5.065,3.6,7.849,4.97c5.519,2.896,11.678,4.39,17.858,5.365
				c1.552,0.225,3.117,0.383,4.68,0.564c1.57,0.094,3.141,0.213,4.716,0.287c1.576,0.044,3.155,0.118,4.736,0.137l4.749-0.07
				l0.008,0.097c-6.315,0.486-12.688,0.539-18.984-0.263l-2.353-0.347l-1.176-0.174l-1.164-0.242l-2.329-0.484
				c-0.77-0.187-1.532-0.41-2.298-0.614c-1.544-0.373-3.022-0.963-4.528-1.459c-1.463-0.615-2.948-1.179-4.352-1.923
				c-2.834-1.423-5.538-3.126-7.98-5.157c-2.439-2.032-4.633-4.357-6.509-6.918c-3.695-5.146-6.264-11.169-7.005-17.485
				L228.965,78.691z"/>
			<path style="fill:#362B4A;" d="M234.034,62.556c1.522,3.479,3.228,6.855,5.26,10.023c1.934,3.217,4.084,6.293,6.48,9.146
				c4.77,5.713,10.333,10.716,16.662,14.485c3.121,1.959,6.495,3.48,9.946,4.766c0.87,0.304,1.722,0.667,2.609,0.926l2.662,0.78
				c0.882,0.285,1.803,0.414,2.701,0.648c0.903,0.211,1.799,0.467,2.721,0.597l2.753,0.475c0.919,0.164,1.853,0.213,2.78,0.326
				c0.931,0.078,1.859,0.24,2.796,0.251l2.812,0.122c0.939,0.085,1.88,0.087,2.822,0.084l2.834,0.009
				c0.947,0.003,1.888-0.095,2.836-0.131l2.854-0.1l0.03,0.193c-7.514,1.155-15.201,1.353-22.743,0.272
				c-3.757-0.588-7.496-1.408-11.078-2.717c-3.588-1.268-7.088-2.832-10.341-4.824c-6.526-3.945-12.238-9.184-16.862-15.23
				c-2.318-3.021-4.376-6.236-6.184-9.584c-1.806-3.348-3.371-6.831-4.537-10.461L234.034,62.556z"/>
			<path style="fill:#322845;" d="M169.715,117.004c2.655,0.431,5.323,0.739,7.998,0.876c2.67,0.181,5.344,0.238,8.01,0.141
				c5.324-0.174,10.645-0.764,15.758-2.181c5.15-1.258,10.079-3.35,14.593-6.126c1.159-0.652,2.215-1.458,3.32-2.199
				c1.033-0.833,2.125-1.604,3.098-2.516c2.082-1.682,3.865-3.685,5.694-5.663l0.078,0.059c-1.682,2.101-3.414,4.177-5.421,5.981
				c-0.951,0.957-2.034,1.765-3.056,2.643c-1.095,0.783-2.145,1.634-3.301,2.331c-2.245,1.493-4.65,2.735-7.119,3.81
				c-2.466,1.089-5.032,1.944-7.639,2.625c-5.217,1.37-10.616,1.964-16,1.998c-5.384,0.011-10.783-0.478-16.037-1.685
				L169.715,117.004z"/>
			<path style="fill:#362B4A;" d="M214.055,100.017c-2.716,2.374-5.883,4.226-9.248,5.606c-1.675,0.725-3.432,1.221-5.189,1.723
				c-0.889,0.208-1.786,0.382-2.681,0.564l-2.709,0.413l-2.731,0.2c-0.912,0.014-1.823,0.054-2.734,0.044
				c-1.821-0.092-3.637-0.17-5.429-0.481c-3.584-0.546-7.085-1.531-10.354-3.041l0.048-0.19c6.851,1.656,13.977,2.365,20.982,1.525
				c3.501-0.376,6.965-1.114,10.31-2.221c3.347-1.102,6.576-2.559,9.637-4.312L214.055,100.017z"/>
			<path style="fill:#D17F81;" d="M242.195,140.721c-0.176,2.505-0.364,5.008-0.617,7.504c-0.245,2.497-0.47,4.995-0.756,7.487
				c-0.263,2.494-0.572,4.983-0.869,7.473l-0.97,7.461l-0.481-0.489c1.179-0.091,2.319-0.043,3.469,0.067
				c1.145,0.112,2.283,0.31,3.395,0.605c2.212,0.591,4.361,1.651,5.937,3.3c-1.75-1.462-3.891-2.292-6.068-2.752
				c-1.092-0.231-2.204-0.366-3.318-0.419c-1.109-0.052-2.243-0.03-3.322,0.071l-0.543,0.051l0.062-0.54l0.853-7.475
				c0.312-2.488,0.61-4.978,0.954-7.463c0.323-2.487,0.705-4.967,1.068-7.449C241.343,145.67,241.763,143.195,242.195,140.721z"/>
			<path style="fill:#D17F81;" d="M311.736,149.965c0.324-1.055,0.726-2.081,1.157-3.095c0.429-1.016,0.916-2.007,1.461-2.972
				c0.277-0.48,0.575-0.951,0.904-1.406c0.365-0.428,0.67-0.922,1.281-1.183c0.283-0.096,0.622-0.155,0.934-0.016
				c0.308,0.142,0.49,0.425,0.589,0.693c0.184,0.551,0.214,1.114,0.159,1.663c-0.056-0.544-0.144-1.098-0.383-1.563
				c-0.111-0.232-0.28-0.43-0.486-0.501c-0.207-0.072-0.442-0.016-0.666,0.08c-0.404,0.213-0.734,0.685-1.043,1.104
				c-0.303,0.443-0.59,0.903-0.855,1.378C313.707,146.037,312.762,148.017,311.736,149.965z"/>
			<path style="fill:#D17F81;" d="M320.054,144.878c0.015-1.075-0.029-2.149-0.128-3.214c-0.089-1.064-0.227-2.129-0.511-3.145
				c-0.146-0.505-0.325-1-0.577-1.441c-0.257-0.429-0.604-0.817-1.052-0.925c-0.463-0.156-0.873,0.055-1.237,0.397
				c-0.357,0.344-0.645,0.785-0.904,1.237c-1.035,1.835-1.66,3.91-2.283,5.95c-0.599,2.056-1.14,4.135-1.627,6.228
				c0.305-2.129,0.718-4.243,1.256-6.331c0.554-2.081,1.176-4.16,2.22-6.096c0.282-0.473,0.59-0.94,1.013-1.337
				c0.212-0.194,0.454-0.382,0.759-0.478c0.304-0.107,0.639-0.099,0.926-0.007c0.614,0.167,1.024,0.667,1.303,1.147
				c0.28,0.495,0.445,1.027,0.573,1.559C320.27,140.561,320.232,142.738,320.054,144.878z"/>
			<path style="fill:#D17F81;" d="M316.897,153.537c-0.215,0.625-0.508,1.223-0.863,1.791c-0.376,0.528-0.808,1.159-1.618,1.266
				c-0.849,0.018-1.372-0.767-1.5-1.443c-0.144-0.696-0.089-1.377-0.016-2.044c0.198-1.329,0.564-2.608,0.997-3.859
				c0.445-1.247,0.95-2.469,1.557-3.643c-0.41,1.255-0.823,2.503-1.186,3.762c-0.362,1.257-0.71,2.524-0.876,3.806
				c-0.086,0.634-0.147,1.287-0.035,1.888c0.058,0.301,0.16,0.569,0.353,0.779c0.197,0.22,0.429,0.382,0.694,0.382
				c0.551-0.013,1.051-0.544,1.44-1.032C316.25,154.686,316.584,154.117,316.897,153.537z"/>
			<path style="fill:#D17F81;" d="M251.651,203.54c-1.575,0.528-3.015,0.726-4.454,0.957l-4.424,0.666l-0.055-0.084
				c1.299-0.851,2.807-1.319,4.329-1.57c1.532-0.205,3.082-0.231,4.616-0.068L251.651,203.54z"/>
			<path style="fill:#362B4A;" d="M253.851,138.568c0,0,6.521-3.697,14.345-5.135c2.489-0.458,18.013,2.323,18.013,2.323
				s-14.019-0.46-17.931-0.047c-3.912,0.413-9.781,2.37-9.781,2.37L253.851,138.568z"/>
			<path style="fill:#362B4A;" d="M234.781,138.568c0,0-6.521-3.697-14.345-5.135c-2.489-0.458-18.013,2.323-18.013,2.323
				s14.019-0.46,17.931-0.047c3.912,0.413,9.781,2.37,9.781,2.37L234.781,138.568z"/>
			<path style="fill:#0D0A12;" d="M257.43,153.325c0.901-0.326,1.816-0.585,2.726-0.867c0.908-0.295,1.83-0.511,2.747-0.757
				l2.756-0.713l2.777-0.602l0.061-0.013l0.098-0.002l2.841-0.06c0.947-0.016,1.894,0.03,2.841,0.042l2.841,0.06
				c0.947,0.003,1.894,0.073,2.841,0.134l-0.218,0.037l1.597-0.454c0.534-0.146,1.06-0.316,1.603-0.436
				c1.083-0.252,2.151-0.543,3.25-0.749l0.033,0.094l-6.241,2.231l-0.012,0.004h-0.013l-11.365,0.016l0.017-0.002l-11.163,2.132
				L257.43,153.325z"/>
			<path style="fill:#0D0A12;" d="M230.331,153.423c-0.958-0.036-1.903-0.138-2.852-0.218c-0.952-0.067-1.888-0.213-2.831-0.329
				l-2.822-0.373l-2.8-0.484l0.158,0.015l-2.841,0.06c-0.947,0.016-1.894-0.03-2.841-0.042l-2.841-0.059
				c-0.947-0.003-1.894-0.074-2.841-0.134l-0.154-0.01l-0.065-0.028l-1.527-0.651c-0.507-0.223-1.023-0.421-1.521-0.669
				c-1-0.485-2.014-0.93-2.998-1.461l0.033-0.094l6.256,2.189l-0.024-0.004l11.365-0.016h0.009l0.008,0.002l11.149,2.209
				L230.331,153.423z"/>
			<path style="fill:#0D0A12;" d="M279.93,151.182c0.135-1.046,0.586-1.864,1.116-2.625c0.561-0.738,1.198-1.421,2.148-1.877
				l0.061,0.044l-1.601,2.273l-1.662,2.229L279.93,151.182z"/>
			<path style="fill:#0D0A12;" d="M207.789,151.226l-1.662-2.229l-1.601-2.273l0.061-0.044c0.95,0.456,1.587,1.139,2.148,1.877
				c0.529,0.761,0.98,1.579,1.116,2.625L207.789,151.226z"/>
			<path style="fill:#D1585B;" d="M227.914,183.892c0,0,6.461-1.858,12.648,0c0,0,9.149-2.421,19.825,0
				c0,0-11.012,0.983-19.825,0.983C231.75,184.875,227.914,183.892,227.914,183.892z"/>
		</g>
		<g>
			<path style="fill:#EBAEAF;" d="M320.147,396.47c0,0-1.609-17.19-10.529-18.512c-8.92-1.323-0.103,22.263-0.103,22.263
				L320.147,396.47z"/>
			<path style="fill:#6A7CC4;" d="M279.445,397.679c-6.37,18.163,17.059,20.95,30.173,21.132v-24.669
				C299.481,387.745,284.907,382.105,279.445,397.679z"/>
			<path style="fill:#F7F7F7;" d="M323.048,250.894c0,0,112.551,134.778,104.373,172.692
				c-3.923,18.186-109.512-10.581-109.512-10.581l2.238-16.535l81.065,13.449l-71.859-95.224L323.048,250.894z"/>
			<path style="fill:#EDEDED;" d="M401.212,409.919l6.751,1.122c-13.2-21.472-78.61-96.346-78.61-96.346L401.212,409.919z"/>
			<path style="fill:#EBAEAF;" d="M320.147,396.47c0,0-31.977-29.254-40.702-4.375c-8.725,24.878,38.464,20.911,38.464,20.911
				L320.147,396.47z"/>
			<path style="fill:#DBA2A3;" d="M318.519,407.754c0,0-33.387,2.682-40.143-10.223c-0.397,18.83,39.534,15.474,39.534,15.474
				L318.519,407.754z"/>
			<path style="fill:#EDEDED;" d="M427.421,423.586c1.711-7.933-1.876-20.114-8.598-34.406c1.067,2.586,15.01,37.631-13.863,35.508
				c-29.978-2.204-86.34-16.934-86.34-16.934l-0.711,5.251C317.909,413.005,423.498,441.772,427.421,423.586z"/>
			<path style="fill:#BFBFBF;" d="M320.147,396.47c8.065,1.014,16.11,2.165,24.15,3.35c8.04,1.185,16.063,2.483,24.089,3.758
				c8.013,1.356,16.027,2.71,24.018,4.198c7.988,1.496,15.973,3.051,23.868,4.991l-5.99-1.126l-6.001-1.058
				c-4-0.704-8.003-1.391-12.012-2.05l-24.047-3.97l-24.046-3.987C336.164,399.234,328.15,397.892,320.147,396.47z"/>
			<path style="fill:#BFBFBF;" d="M335.8,363.102c-1.07-7.329-2.031-14.671-2.976-22.016l-2.712-22.047l-2.482-22.074l-1.159-11.046
				l-1.055-11.059l1.541,11.002l1.436,11.014l2.71,22.047l2.48,22.074C334.37,348.359,335.139,355.724,335.8,363.102z"/>
			<path style="fill:#FFFFFF;" d="M387.388,416.846c-5.7,0.103-11.315-0.293-16.9-0.867c-2.801-0.238-5.569-0.664-8.354-0.996
				c-2.773-0.399-5.537-0.852-8.305-1.282c-2.753-0.52-5.512-0.999-8.259-1.553c-2.737-0.608-5.49-1.13-8.211-1.834
				c-5.458-1.313-10.887-2.799-16.231-4.783l0.051-0.296l33.155,5.51l33.104,5.805L387.388,416.846z"/>
			<path style="fill:#D17F81;" d="M279.445,392.095c-0.562,2.114-0.988,4.274-0.801,6.424c0.138,2.145,0.961,4.204,2.305,5.841
				c1.348,1.638,3.097,2.922,5,3.903c1.904,0.987,3.947,1.711,6.028,2.287c4.164,1.186,8.5,1.752,12.838,2.107
				c2.171,0.183,4.352,0.288,6.535,0.333c2.184,0.076,4.369,0.063,6.559,0.016c-4.354,0.511-8.753,0.604-13.142,0.419
				c-2.197-0.073-4.388-0.305-6.569-0.61c-2.179-0.319-4.356-0.703-6.49-1.302c-2.125-0.619-4.218-1.393-6.186-2.447
				c-1.952-1.057-3.829-2.402-5.177-4.235c-1.362-1.807-2.148-4.047-2.187-6.282C278.132,396.308,278.671,394.138,279.445,392.095z"
				/>
		</g>
		<g>
			<path style="fill:#EBAEAF;" d="M179.852,396.47c0,0,1.609-17.19,10.529-18.512c8.92-1.323,0.103,22.263,0.103,22.263
				L179.852,396.47z"/>
			<path style="fill:#F7F7F7;" d="M176.952,250.894c0,0-112.551,134.778-104.373,172.692
				c3.923,18.186,109.512-10.581,109.512-10.581l-2.238-16.535l-81.065,13.449l71.859-95.224L176.952,250.894z"/>
			<path style="fill:#EDEDED;" d="M98.788,409.919l-6.751,1.122c13.2-21.472,78.61-96.346,78.61-96.346L98.788,409.919z"/>
			<path style="fill:#EBAEAF;" d="M179.852,396.47c0,0,31.977-29.254,40.702-4.375c8.725,24.878-38.464,20.911-38.464,20.911
				L179.852,396.47z"/>
			<path style="fill:#DBA2A3;" d="M181.481,407.754c0,0,33.387,2.682,40.143-10.223c0.397,18.83-39.534,15.474-39.534,15.474
				L181.481,407.754z"/>
			<path style="fill:#EDEDED;" d="M72.579,423.586c-1.711-7.933,1.876-20.114,8.598-34.406c-1.067,2.586-15.01,37.631,13.863,35.508
				c29.978-2.204,86.34-16.934,86.34-16.934l0.711,5.251C182.091,413.005,76.502,441.772,72.579,423.586z"/>
			<path style="fill:#BFBFBF;" d="M179.852,396.47c-8.003,1.422-16.017,2.764-24.031,4.107l-24.046,3.987l-24.046,3.97
				c-4.008,0.659-8.011,1.346-12.012,2.05l-6.001,1.058l-5.99,1.126c7.895-1.94,15.88-3.495,23.868-4.991
				c7.991-1.488,16.005-2.842,24.018-4.198c8.026-1.275,16.049-2.574,24.089-3.758C163.742,398.635,171.787,397.484,179.852,396.47z
				"/>
			<path style="fill:#BFBFBF;" d="M164.495,363.102c0.661-7.378,1.43-14.742,2.216-22.105l2.48-22.074l2.71-22.047l1.436-11.014
				l1.541-11.002l-1.055,11.059l-1.159,11.046l-2.482,22.074l-2.712,22.047C166.527,348.43,165.566,355.772,164.495,363.102z"/>
			<path style="fill:#FFFFFF;" d="M108.505,349.377c3.736-6.478,7.749-12.769,11.862-18.989c2.035-3.126,4.161-6.188,6.255-9.273
				l6.425-9.154c2.196-3.013,4.374-6.038,6.599-9.031c2.248-2.975,4.471-5.969,6.78-8.899c4.587-5.883,9.292-11.681,14.294-17.24
				c-4.007,6.314-8.179,12.487-12.405,18.623c-2.081,3.091-4.257,6.112-6.367,9.181l-6.463,9.112l-6.553,9.049
				c-2.224,2.988-4.399,6.012-6.658,8.976C117.802,337.693,113.261,343.607,108.505,349.377z"/>
			<path style="fill:#FFFFFF;" d="M101.876,419.149l38.781-7.104l38.834-6.809l0.053,0.295c-6.282,2.198-12.652,3.901-19.054,5.429
				c-3.193,0.811-6.417,1.442-9.627,2.158c-3.219,0.662-6.452,1.249-9.677,1.878c-3.241,0.539-6.479,1.099-9.725,1.607
				c-3.259,0.44-6.501,0.975-9.777,1.321c-6.534,0.792-13.1,1.405-19.755,1.52L101.876,419.149z"/>
			<path style="fill:#D17F81;" d="M220.555,392.095c0.774,2.044,1.313,4.213,1.287,6.453c-0.039,2.235-0.825,4.475-2.187,6.282
				c-1.348,1.833-3.225,3.178-5.177,4.235c-1.968,1.055-4.062,1.828-6.186,2.447c-2.133,0.599-4.311,0.983-6.49,1.302
				c-2.181,0.305-4.372,0.537-6.569,0.61c-4.39,0.186-8.789,0.092-13.142-0.419c2.189,0.047,4.375,0.06,6.559-0.016
				c2.183-0.045,4.363-0.15,6.535-0.333c4.338-0.354,8.675-0.921,12.838-2.107c2.081-0.576,4.124-1.3,6.028-2.287
				c1.902-0.981,3.652-2.265,5-3.903c1.344-1.637,2.167-3.695,2.305-5.841C221.543,396.369,221.117,394.209,220.555,392.095z"/>
		</g>
	</g>
</g>
<g id="DESIGNED_BY_FREEPIK">
	<g id="XMLID_76_">
		<g id="XMLID_929_">
			<path id="XMLID_958_" style="fill:#271F36;" d="M181.087,472.134c-0.246,0-0.435,0.085-0.567,0.255
				c-0.133,0.17-0.199,0.421-0.199,0.753v2.392c-0.305-0.331-0.617-0.579-0.937-0.739c-0.321-0.159-0.715-0.24-1.182-0.24
				c-0.807,0-1.458,0.283-1.953,0.848c-0.494,0.566-0.742,1.356-0.742,2.369c0,0.478,0.063,0.923,0.187,1.335
				c0.124,0.412,0.307,0.77,0.549,1.074c0.241,0.305,0.527,0.539,0.857,0.703c0.33,0.164,0.689,0.246,1.078,0.246
				c0.293,0,0.563-0.04,0.809-0.122c0.248-0.08,0.477-0.199,0.689-0.356c0.212-0.156,0.427-0.359,0.644-0.608v0.16
				c0,0.297,0.072,0.525,0.217,0.685c0.145,0.161,0.328,0.24,0.549,0.24c0.226,0,0.409-0.077,0.552-0.231
				c0.143-0.154,0.214-0.386,0.214-0.694v-7.146c0-0.305-0.066-0.534-0.199-0.691C181.521,472.212,181.332,472.134,181.087,472.134z
				 M180.021,478.974c-0.14,0.306-0.328,0.533-0.563,0.682c-0.236,0.149-0.496,0.223-0.781,0.223c-0.281,0-0.539-0.079-0.777-0.236
				c-0.237-0.155-0.424-0.387-0.561-0.696c-0.136-0.309-0.204-0.682-0.204-1.122c0-0.415,0.063-0.78,0.193-1.095
				c0.128-0.315,0.309-0.556,0.543-0.724c0.233-0.168,0.499-0.253,0.795-0.253c0.285,0,0.547,0.082,0.786,0.246
				c0.239,0.165,0.429,0.402,0.569,0.712c0.141,0.311,0.21,0.682,0.21,1.114C180.232,478.284,180.162,478.667,180.021,478.974z"/>
			<path id="XMLID_954_" style="fill:#271F36;" d="M188.452,478.054c0.233-0.122,0.35-0.385,0.35-0.793
				c0-0.438-0.114-0.87-0.339-1.294c-0.225-0.423-0.564-0.769-1.018-1.035c-0.453-0.268-0.996-0.4-1.628-0.4
				c-0.487,0-0.93,0.078-1.33,0.234c-0.4,0.157-0.737,0.381-1.009,0.674c-0.273,0.293-0.48,0.644-0.623,1.054
				c-0.143,0.409-0.214,0.853-0.214,1.332c0,1.017,0.289,1.822,0.867,2.415c0.577,0.592,1.387,0.89,2.427,0.89
				c0.455,0,0.858-0.059,1.207-0.178c0.352-0.12,0.641-0.268,0.873-0.448c0.231-0.18,0.404-0.368,0.519-0.564
				c0.115-0.197,0.172-0.367,0.172-0.514c0-0.166-0.052-0.294-0.155-0.386c-0.102-0.09-0.237-0.137-0.403-0.137
				c-0.154,0-0.273,0.035-0.356,0.107c-0.203,0.19-0.366,0.34-0.493,0.452c-0.126,0.111-0.265,0.215-0.415,0.312
				c-0.15,0.098-0.305,0.167-0.466,0.214c-0.16,0.045-0.337,0.067-0.531,0.067c-0.289,0-0.553-0.07-0.792-0.213
				c-0.239-0.142-0.432-0.354-0.576-0.635c-0.145-0.281-0.219-0.605-0.222-0.973h3.168
				C187.89,478.235,188.219,478.174,188.452,478.054z M184.297,477.315c0.056-0.546,0.212-0.959,0.472-1.238
				c0.259-0.28,0.59-0.418,0.994-0.418c0.423,0,0.764,0.137,1.024,0.412c0.259,0.275,0.409,0.69,0.448,1.244H184.297z"/>
			<path id="XMLID_952_" style="fill:#271F36;" d="M193.879,477.617c-0.319-0.17-0.729-0.316-1.231-0.439
				c-0.425-0.103-0.756-0.19-0.997-0.261c-0.242-0.07-0.434-0.16-0.577-0.27c-0.142-0.109-0.213-0.248-0.213-0.419
				c0-0.186,0.096-0.341,0.29-0.465c0.194-0.126,0.437-0.187,0.73-0.187c0.286,0,0.511,0.047,0.677,0.142
				c0.166,0.095,0.31,0.222,0.433,0.38c0.151,0.19,0.284,0.332,0.401,0.427c0.116,0.095,0.258,0.143,0.423,0.143
				c0.231,0,0.408-0.06,0.532-0.178c0.124-0.119,0.186-0.271,0.186-0.457c0-0.171-0.058-0.345-0.175-0.523
				c-0.116-0.178-0.286-0.34-0.51-0.486c-0.223-0.146-0.502-0.264-0.837-0.35c-0.333-0.088-0.71-0.131-1.13-0.131
				c-0.535,0-0.99,0.085-1.367,0.259c-0.378,0.172-0.665,0.403-0.859,0.691c-0.194,0.289-0.291,0.596-0.291,0.92
				c0,0.364,0.105,0.671,0.315,0.92c0.21,0.249,0.489,0.45,0.84,0.602c0.35,0.152,0.804,0.298,1.362,0.436
				c0.494,0.12,0.849,0.244,1.066,0.375c0.216,0.131,0.323,0.338,0.323,0.622c0,0.187-0.104,0.352-0.311,0.497
				c-0.208,0.144-0.474,0.216-0.798,0.216c-0.4,0-0.715-0.071-0.947-0.213c-0.231-0.143-0.431-0.358-0.597-0.647
				c-0.082-0.15-0.17-0.267-0.261-0.35c-0.091-0.082-0.221-0.124-0.391-0.124c-0.194,0-0.355,0.064-0.481,0.19
				c-0.128,0.126-0.19,0.278-0.19,0.456c0,0.27,0.099,0.537,0.297,0.805c0.198,0.266,0.505,0.489,0.92,0.667
				c0.415,0.178,0.914,0.267,1.495,0.267c0.61,0,1.127-0.082,1.552-0.246c0.425-0.164,0.747-0.406,0.964-0.724
				c0.218-0.319,0.327-0.702,0.327-1.149c0-0.297-0.082-0.56-0.246-0.791C194.438,477.988,194.196,477.787,193.879,477.617z"/>
			<path id="XMLID_950_" style="fill:#271F36;" d="M196.486,474.543c-0.237,0-0.43,0.081-0.578,0.243
				c-0.149,0.162-0.222,0.404-0.222,0.724v4.635c0,0.317,0.073,0.56,0.222,0.73c0.148,0.17,0.341,0.255,0.578,0.255
				c0.238,0,0.433-0.083,0.588-0.249c0.154-0.166,0.231-0.412,0.231-0.737v-4.682c0-0.289-0.077-0.514-0.231-0.677
				C196.919,474.624,196.724,474.543,196.486,474.543z"/>
			<path id="XMLID_949_" style="fill:#271F36;" d="M196.504,472.204c-0.217,0-0.409,0.073-0.573,0.223
				c-0.164,0.149-0.246,0.337-0.246,0.567c0,0.254,0.08,0.45,0.24,0.588c0.16,0.139,0.353,0.208,0.579,0.208
				c0.217,0,0.405-0.071,0.563-0.211c0.158-0.14,0.238-0.335,0.238-0.585c0-0.257-0.081-0.453-0.243-0.588
				C196.9,472.272,196.714,472.204,196.504,472.204z"/>
			<path id="XMLID_945_" style="fill:#271F36;" d="M203.626,474.543c-0.217,0-0.395,0.078-0.535,0.231
				c-0.139,0.155-0.208,0.372-0.208,0.653v0.22c-0.289-0.376-0.602-0.652-0.937-0.829c-0.337-0.175-0.735-0.264-1.194-0.264
				c-0.384,0-0.736,0.068-1.056,0.204c-0.32,0.137-0.604,0.34-0.849,0.609c-0.245,0.268-0.433,0.599-0.566,0.992
				c-0.133,0.391-0.199,0.831-0.199,1.318c0,0.653,0.109,1.228,0.327,1.727c0.217,0.499,0.529,0.886,0.934,1.163
				c0.407,0.277,0.88,0.416,1.422,0.416c0.45,0,0.84-0.091,1.165-0.273c0.327-0.182,0.615-0.447,0.864-0.796
				c-0.008,0.531-0.02,0.915-0.035,1.155c-0.016,0.24-0.07,0.464-0.163,0.673c-0.093,0.21-0.255,0.374-0.486,0.49
				c-0.231,0.117-0.557,0.175-0.977,0.175c-0.205,0-0.388-0.02-0.546-0.056c-0.159-0.038-0.294-0.095-0.406-0.172
				c-0.112-0.078-0.216-0.17-0.309-0.279c-0.093-0.109-0.183-0.217-0.27-0.324c-0.178-0.209-0.386-0.314-0.624-0.314
				c-0.189,0-0.352,0.062-0.486,0.187c-0.135,0.124-0.202,0.285-0.202,0.483c0,0.262,0.119,0.516,0.356,0.763
				c0.238,0.247,0.576,0.449,1.014,0.605c0.439,0.156,0.938,0.234,1.496,0.234c0.609,0,1.119-0.061,1.528-0.184
				c0.409-0.122,0.741-0.311,0.994-0.563c0.253-0.254,0.437-0.574,0.552-0.961c0.115-0.389,0.173-0.851,0.173-1.389v-4.706
				c0-0.384-0.051-0.678-0.155-0.882C204.146,474.645,203.938,474.543,203.626,474.543z M202.599,478.908
				c-0.151,0.291-0.345,0.508-0.586,0.653c-0.239,0.144-0.493,0.217-0.762,0.217c-0.455,0-0.826-0.168-1.113-0.505
				c-0.287-0.336-0.43-0.834-0.43-1.49c0-0.649,0.139-1.15,0.418-1.502s0.649-0.528,1.113-0.528c0.475,0,0.857,0.184,1.148,0.553
				c0.291,0.367,0.436,0.882,0.436,1.543C202.825,478.265,202.749,478.617,202.599,478.908z"/>
			<path id="XMLID_944_" style="fill:#271F36;" d="M210.978,475.611c-0.165-0.339-0.417-0.602-0.753-0.788
				c-0.337-0.186-0.718-0.28-1.146-0.28c-0.439,0-0.827,0.088-1.166,0.264c-0.339,0.176-0.65,0.452-0.935,0.828v-0.196
				c0-0.193-0.034-0.358-0.104-0.493c-0.07-0.134-0.162-0.234-0.276-0.302c-0.115-0.068-0.244-0.101-0.387-0.101
				c-0.233,0-0.417,0.076-0.552,0.228c-0.134,0.153-0.201,0.383-0.201,0.692v4.682c0,0.317,0.076,0.56,0.226,0.73
				c0.15,0.17,0.342,0.255,0.576,0.255c0.241,0,0.438-0.082,0.59-0.246c0.152-0.164,0.228-0.411,0.228-0.74v-2.03
				c0-0.661,0.04-1.111,0.119-1.353c0.11-0.3,0.284-0.537,0.522-0.71c0.237-0.173,0.5-0.258,0.788-0.258
				c0.444,0,0.74,0.142,0.888,0.425c0.148,0.283,0.223,0.691,0.223,1.225v2.7c0,0.317,0.074,0.56,0.226,0.73
				c0.15,0.17,0.345,0.255,0.587,0.255c0.238,0,0.431-0.083,0.579-0.249c0.149-0.166,0.223-0.412,0.223-0.737v-3.015
				c0-0.356-0.016-0.648-0.048-0.878C211.155,476.023,211.085,475.809,210.978,475.611z"/>
			<path id="XMLID_939_" style="fill:#271F36;" d="M217.821,478.054c0.234-0.122,0.35-0.385,0.35-0.793
				c0-0.438-0.113-0.87-0.338-1.294c-0.226-0.423-0.565-0.769-1.019-1.035c-0.453-0.268-0.995-0.4-1.628-0.4
				c-0.487,0-0.93,0.078-1.33,0.234c-0.4,0.157-0.736,0.381-1.009,0.674c-0.273,0.293-0.481,0.644-0.624,1.054
				c-0.142,0.409-0.214,0.853-0.214,1.332c0,1.017,0.289,1.822,0.867,2.415c0.578,0.592,1.387,0.89,2.427,0.89
				c0.455,0,0.858-0.059,1.208-0.178c0.35-0.12,0.64-0.268,0.871-0.448c0.232-0.18,0.405-0.368,0.52-0.564
				c0.115-0.197,0.172-0.367,0.172-0.514c0-0.166-0.051-0.294-0.154-0.386c-0.103-0.09-0.238-0.137-0.404-0.137
				c-0.154,0-0.273,0.035-0.356,0.107c-0.201,0.19-0.366,0.34-0.492,0.452c-0.128,0.111-0.266,0.215-0.416,0.312
				c-0.151,0.098-0.306,0.167-0.466,0.214c-0.161,0.045-0.338,0.067-0.532,0.067c-0.289,0-0.553-0.07-0.792-0.213
				c-0.239-0.142-0.431-0.354-0.575-0.635c-0.145-0.281-0.218-0.605-0.223-0.973h3.169
				C217.26,478.235,217.588,478.174,217.821,478.054z M213.667,477.315c0.055-0.546,0.212-0.959,0.471-1.238
				c0.259-0.28,0.591-0.418,0.995-0.418c0.423,0,0.765,0.137,1.024,0.412c0.259,0.275,0.409,0.69,0.448,1.244H213.667z"/>
			<path id="XMLID_936_" style="fill:#271F36;" d="M224.207,472.134c-0.245,0-0.434,0.085-0.567,0.255
				c-0.132,0.17-0.2,0.421-0.2,0.753v2.392c-0.304-0.331-0.616-0.579-0.937-0.739c-0.32-0.159-0.714-0.24-1.181-0.24
				c-0.807,0-1.458,0.283-1.953,0.848c-0.495,0.566-0.741,1.356-0.741,2.369c0,0.478,0.062,0.923,0.187,1.335
				c0.124,0.412,0.307,0.77,0.549,1.074c0.241,0.305,0.527,0.539,0.857,0.703c0.33,0.164,0.689,0.246,1.077,0.246
				c0.293,0,0.563-0.04,0.81-0.122c0.247-0.08,0.476-0.199,0.688-0.356c0.211-0.156,0.426-0.359,0.643-0.608v0.16
				c0,0.297,0.073,0.525,0.217,0.685c0.145,0.161,0.328,0.24,0.549,0.24c0.226,0,0.41-0.077,0.552-0.231
				c0.143-0.154,0.214-0.386,0.214-0.694v-7.146c0-0.305-0.066-0.534-0.199-0.691C224.64,472.212,224.452,472.134,224.207,472.134z
				 M223.141,478.974c-0.14,0.306-0.328,0.533-0.564,0.682c-0.235,0.149-0.495,0.223-0.781,0.223c-0.281,0-0.54-0.079-0.776-0.236
				c-0.238-0.155-0.425-0.387-0.561-0.696c-0.137-0.309-0.205-0.682-0.205-1.122c0-0.415,0.064-0.78,0.193-1.095
				c0.129-0.315,0.31-0.556,0.543-0.724c0.233-0.168,0.499-0.253,0.795-0.253c0.285,0,0.547,0.082,0.787,0.246
				c0.239,0.165,0.43,0.402,0.57,0.712c0.14,0.311,0.21,0.682,0.21,1.114C223.352,478.284,223.281,478.667,223.141,478.974z"/>
			<path id="XMLID_933_" style="fill:#271F36;" d="M233.586,474.937c-0.406-0.254-0.878-0.382-1.416-0.382
				c-0.467,0-0.859,0.084-1.175,0.252c-0.317,0.168-0.627,0.411-0.932,0.727v-2.475c0-0.297-0.068-0.524-0.202-0.685
				c-0.134-0.16-0.326-0.24-0.576-0.24c-0.237,0-0.423,0.084-0.555,0.252c-0.132,0.168-0.198,0.416-0.198,0.745v7.075
				c0,0.305,0.068,0.535,0.205,0.692c0.136,0.156,0.319,0.234,0.549,0.234c0.226,0,0.412-0.077,0.558-0.234
				c0.146-0.157,0.22-0.388,0.22-0.692v-0.16c0.178,0.205,0.322,0.361,0.43,0.463c0.109,0.103,0.241,0.203,0.395,0.3
				c0.154,0.098,0.341,0.175,0.561,0.234c0.22,0.06,0.454,0.089,0.704,0.089c0.407,0,0.781-0.082,1.118-0.246
				c0.338-0.164,0.626-0.397,0.864-0.698c0.237-0.3,0.418-0.656,0.543-1.065c0.125-0.41,0.187-0.859,0.187-1.35
				c0-0.665-0.112-1.241-0.336-1.725C234.305,475.563,233.991,475.193,233.586,474.937z M232.796,479.348
				c-0.295,0.354-0.646,0.531-1.053,0.531c-0.479,0-0.866-0.174-1.161-0.521c-0.295-0.346-0.442-0.841-0.442-1.487
				c0-0.439,0.069-0.818,0.208-1.136c0.138-0.319,0.328-0.562,0.57-0.73c0.24-0.168,0.516-0.253,0.825-0.253
				c0.3,0,0.564,0.085,0.79,0.253c0.225,0.168,0.399,0.406,0.522,0.715c0.123,0.308,0.184,0.677,0.184,1.104
				C233.238,478.486,233.09,478.993,232.796,479.348z"/>
			<path id="XMLID_931_" style="fill:#271F36;" d="M240.529,474.641c-0.112-0.066-0.23-0.098-0.353-0.098
				c-0.171,0-0.303,0.03-0.395,0.09c-0.093,0.058-0.181,0.173-0.264,0.344c-0.083,0.17-0.176,0.406-0.279,0.706l-1.3,3.71
				l-1.371-3.988c-0.091-0.277-0.195-0.489-0.314-0.638c-0.119-0.148-0.295-0.223-0.529-0.223c-0.135,0-0.264,0.035-0.389,0.107
				c-0.124,0.071-0.222,0.166-0.294,0.285c-0.071,0.118-0.107,0.247-0.107,0.385c0,0.13,0.062,0.341,0.184,0.628l1.994,5.022
				l-0.148,0.362c-0.111,0.265-0.209,0.466-0.294,0.601c-0.085,0.138-0.181,0.234-0.288,0.289c-0.107,0.056-0.254,0.084-0.44,0.084
				c-0.074,0-0.163-0.012-0.266-0.035c-0.083-0.024-0.168-0.037-0.256-0.037c-0.221,0-0.388,0.051-0.5,0.152
				c-0.114,0.101-0.17,0.245-0.17,0.43c0,0.273,0.118,0.461,0.356,0.564c0.237,0.103,0.593,0.154,1.068,0.154
				c0.487,0,0.873-0.074,1.161-0.223c0.287-0.148,0.517-0.361,0.691-0.638c0.174-0.277,0.353-0.658,0.535-1.145l2.113-5.532
				c0.051-0.142,0.095-0.283,0.13-0.421c0.037-0.139,0.061-0.246,0.078-0.321c0-0.123-0.032-0.239-0.093-0.35
				C240.729,474.794,240.642,474.706,240.529,474.641z"/>
		</g>
		<g id="XMLID_365_">
			<g id="XMLID_380_">
				<path id="XMLID_928_" style="fill:#271F36;" d="M262.93,472.129c-0.533,0-0.954,0.069-1.26,0.204
					c-0.307,0.137-0.527,0.354-0.654,0.652c-0.129,0.301-0.191,0.702-0.191,1.211v0.487h-0.387c-0.543,0-0.815,0.192-0.815,0.582
					c0,0.174,0.066,0.316,0.196,0.424c0.132,0.111,0.316,0.163,0.558,0.163h0.447v4.294c0,0.319,0.074,0.563,0.227,0.73
					c0.154,0.17,0.344,0.254,0.574,0.254c0.243,0,0.438-0.084,0.589-0.254c0.156-0.167,0.231-0.411,0.231-0.73v-4.294h0.395
					c0.29,0,0.517-0.035,0.68-0.107c0.166-0.071,0.245-0.24,0.245-0.502c0-0.374-0.306-0.56-0.926-0.56h-0.395v-0.386
					c0-0.322,0.043-0.568,0.122-0.74c0.087-0.172,0.273-0.259,0.566-0.259c0.107,0,0.241,0.014,0.389,0.034
					c0.156,0.026,0.267,0.038,0.33,0.038c0.134,0,0.252-0.054,0.348-0.16c0.101-0.107,0.15-0.236,0.15-0.384
					C264.35,472.359,263.879,472.129,262.93,472.129z"/>
				<path id="XMLID_926_" style="fill:#271F36;" d="M268.089,474.795c-0.32-0.171-0.648-0.255-0.99-0.255
					c-0.342,0-0.611,0.084-0.818,0.255c-0.203,0.171-0.4,0.421-0.592,0.755c-0.014-0.334-0.08-0.584-0.198-0.755
					c-0.119-0.171-0.312-0.255-0.583-0.255c-0.525,0-0.788,0.364-0.788,1.093v4.513c0,0.323,0.078,0.569,0.225,0.733
					c0.15,0.169,0.34,0.25,0.579,0.25c0.237,0,0.432-0.081,0.586-0.247c0.151-0.163,0.234-0.41,0.234-0.737v-1.355
					c0-0.486,0.014-0.899,0.045-1.239c0.034-0.336,0.09-0.63,0.17-0.878c0.084-0.243,0.201-0.425,0.353-0.553
					c0.149-0.122,0.345-0.186,0.582-0.186c0.172,0,0.374,0.037,0.602,0.108c0.226,0.073,0.37,0.112,0.433,0.112
					c0.157,0,0.304-0.064,0.441-0.195c0.135-0.126,0.204-0.292,0.204-0.488C268.571,475.193,268.411,474.966,268.089,474.795z"/>
				<path id="XMLID_922_" style="fill:#271F36;" d="M274.176,478.052c0.233-0.122,0.351-0.386,0.351-0.791
					c0-0.441-0.113-0.87-0.339-1.296c-0.222-0.423-0.566-0.77-1.018-1.034c-0.453-0.27-0.997-0.403-1.629-0.403
					c-0.488,0-0.931,0.078-1.33,0.233c-0.402,0.156-0.735,0.38-1.007,0.674c-0.276,0.295-0.484,0.643-0.624,1.055
					c-0.144,0.41-0.217,0.855-0.217,1.333c0,1.017,0.292,1.823,0.87,2.418c0.577,0.593,1.385,0.888,2.429,0.888
					c0.453,0,0.857-0.06,1.207-0.179c0.349-0.117,0.639-0.268,0.874-0.446c0.233-0.182,0.405-0.368,0.522-0.566
					c0.112-0.195,0.167-0.365,0.167-0.512c0-0.167-0.048-0.294-0.152-0.386c-0.105-0.092-0.238-0.139-0.406-0.139
					c-0.152,0-0.271,0.038-0.355,0.109c-0.202,0.189-0.367,0.34-0.494,0.449c-0.128,0.113-0.264,0.217-0.415,0.312
					c-0.15,0.097-0.307,0.17-0.466,0.213c-0.16,0.048-0.336,0.069-0.531,0.069c-0.29,0-0.552-0.07-0.793-0.212
					c-0.24-0.145-0.431-0.356-0.578-0.635c-0.144-0.281-0.216-0.607-0.221-0.974h3.171
					C273.615,478.233,273.943,478.173,274.176,478.052z M270.021,477.312c0.054-0.546,0.213-0.957,0.472-1.236
					c0.259-0.28,0.591-0.417,0.995-0.417c0.426,0,0.764,0.136,1.025,0.413c0.26,0.273,0.407,0.688,0.446,1.241H270.021z"/>
				<path id="XMLID_919_" style="fill:#271F36;" d="M280.916,478.052c0.231-0.122,0.351-0.386,0.351-0.791
					c0-0.441-0.116-0.87-0.34-1.296c-0.222-0.423-0.563-0.77-1.013-1.034c-0.46-0.27-1.003-0.403-1.633-0.403
					c-0.486,0-0.932,0.078-1.33,0.233c-0.401,0.156-0.736,0.38-1.009,0.674c-0.273,0.295-0.481,0.643-0.622,1.055
					c-0.145,0.41-0.217,0.855-0.217,1.333c0,1.017,0.29,1.823,0.868,2.418c0.58,0.593,1.387,0.888,2.429,0.888
					c0.453,0,0.86-0.06,1.208-0.179c0.347-0.117,0.641-0.268,0.872-0.446c0.234-0.182,0.408-0.368,0.519-0.566
					c0.117-0.195,0.171-0.365,0.171-0.512c0-0.167-0.047-0.294-0.15-0.386c-0.104-0.092-0.238-0.139-0.406-0.139
					c-0.151,0-0.27,0.038-0.355,0.109c-0.203,0.189-0.368,0.34-0.492,0.449c-0.128,0.113-0.264,0.217-0.415,0.312
					c-0.152,0.097-0.307,0.17-0.469,0.213c-0.157,0.048-0.336,0.069-0.528,0.069c-0.291,0-0.555-0.07-0.795-0.212
					c-0.239-0.145-0.431-0.356-0.575-0.635c-0.144-0.281-0.218-0.607-0.222-0.974h3.17
					C280.354,478.233,280.682,478.173,280.916,478.052z M276.762,477.312c0.053-0.546,0.211-0.957,0.469-1.236
					c0.261-0.28,0.592-0.417,0.995-0.417c0.425,0,0.763,0.136,1.027,0.413c0.257,0.273,0.407,0.688,0.447,1.241H276.762z"/>
				<path id="XMLID_390_" style="fill:#271F36;" d="M286.926,474.937c-0.42-0.256-0.882-0.386-1.379-0.386
					c-0.415,0-0.79,0.089-1.114,0.267c-0.331,0.176-0.649,0.452-0.952,0.828v-0.195c0-0.296-0.071-0.519-0.218-0.677
					c-0.143-0.156-0.329-0.234-0.56-0.234c-0.233,0-0.419,0.078-0.553,0.228c-0.134,0.155-0.2,0.382-0.2,0.692v6.995
					c0,0.355,0.051,0.62,0.146,0.807c0.102,0.183,0.301,0.275,0.607,0.275c0.518,0,0.778-0.359,0.778-1.068v-2.433
					c0.287,0.358,0.586,0.634,0.901,0.816c0.314,0.187,0.704,0.279,1.165,0.279c0.385,0,0.741-0.076,1.079-0.227
					c0.334-0.153,0.622-0.372,0.868-0.654c0.245-0.283,0.441-0.632,0.58-1.05c0.14-0.419,0.21-0.878,0.21-1.376
					c0-0.677-0.122-1.261-0.366-1.758C287.675,475.572,287.346,475.196,286.926,474.937z M286.451,478.94
					c-0.137,0.313-0.32,0.546-0.552,0.704c-0.229,0.154-0.48,0.232-0.748,0.232c-0.454,0-0.828-0.179-1.133-0.536
					c-0.306-0.358-0.46-0.862-0.46-1.504c0-0.686,0.154-1.204,0.462-1.558c0.306-0.35,0.684-0.527,1.13-0.527
					c0.281,0,0.541,0.084,0.77,0.248c0.229,0.163,0.411,0.397,0.541,0.705c0.13,0.306,0.197,0.674,0.197,1.101
					C286.658,478.248,286.589,478.626,286.451,478.94z"/>
				<path id="XMLID_389_" style="fill:#271F36;" d="M289.9,474.54c-0.238,0-0.428,0.079-0.58,0.245
					c-0.146,0.162-0.222,0.403-0.222,0.721v4.641c0,0.313,0.076,0.555,0.222,0.729c0.152,0.17,0.342,0.254,0.58,0.254
					c0.238,0,0.432-0.082,0.588-0.25c0.154-0.165,0.231-0.41,0.231-0.732v-4.688c0-0.287-0.078-0.512-0.231-0.675
					C290.332,474.619,290.138,474.54,289.9,474.54z"/>
				<path id="XMLID_388_" style="fill:#271F36;" d="M289.917,472.199c-0.217,0-0.408,0.076-0.571,0.223
					c-0.166,0.149-0.248,0.339-0.248,0.568c0,0.253,0.081,0.447,0.242,0.586c0.159,0.138,0.35,0.209,0.577,0.209
					c0.22,0,0.408-0.071,0.566-0.209c0.157-0.14,0.236-0.335,0.236-0.585c0-0.257-0.082-0.454-0.244-0.591
					C290.314,472.267,290.13,472.199,289.917,472.199z"/>
				<path id="XMLID_387_" style="fill:#271F36;" d="M297.258,479.569l-1.662-2.614l0.86-0.789c0.438-0.395,0.659-0.714,0.659-0.951
					c0-0.192-0.068-0.355-0.2-0.483c-0.139-0.128-0.306-0.193-0.51-0.193c-0.168,0-0.312,0.043-0.431,0.13
					c-0.121,0.086-0.29,0.251-0.517,0.486l-1.822,1.914v-3.933c0-0.329-0.074-0.582-0.221-0.751
					c-0.148-0.172-0.344-0.258-0.593-0.258c-0.255,0-0.457,0.093-0.596,0.283c-0.135,0.189-0.207,0.462-0.207,0.821v6.913
					c0,0.323,0.073,0.569,0.215,0.733c0.141,0.169,0.339,0.25,0.588,0.25c0.213,0,0.406-0.084,0.566-0.254
					c0.165-0.167,0.248-0.406,0.248-0.718v-1.291l0.88-0.83l1.427,2.353c0.181,0.278,0.33,0.471,0.436,0.58
					c0.106,0.109,0.26,0.16,0.458,0.16c0.226,0,0.413-0.073,0.553-0.221c0.142-0.151,0.214-0.352,0.214-0.61
					c0-0.089-0.029-0.19-0.082-0.289C297.47,479.909,297.379,479.765,297.258,479.569z"/>
				<path id="XMLID_386_" style="fill:#271F36;" d="M299.45,479.343c-0.25,0-0.458,0.087-0.63,0.261
					c-0.17,0.173-0.256,0.381-0.256,0.622c0,0.287,0.09,0.51,0.268,0.665c0.179,0.159,0.389,0.238,0.633,0.238
					c0.237,0,0.444-0.079,0.624-0.241c0.174-0.157,0.264-0.38,0.264-0.662c0-0.243-0.089-0.454-0.264-0.626
					C299.909,479.43,299.698,479.343,299.45,479.343z"/>
				<path id="XMLID_385_" style="fill:#271F36;" d="M306.835,478.417c-0.167,0-0.308,0.054-0.422,0.156
					c-0.113,0.104-0.219,0.245-0.318,0.427c-0.178,0.309-0.381,0.538-0.616,0.689c-0.231,0.15-0.509,0.225-0.835,0.225
					c-0.24,0-0.463-0.045-0.665-0.141c-0.201-0.093-0.372-0.229-0.516-0.409c-0.143-0.18-0.252-0.398-0.325-0.652
					c-0.075-0.256-0.114-0.537-0.114-0.842c0-0.646,0.147-1.161,0.439-1.534c0.294-0.375,0.682-0.561,1.158-0.561
					c0.333,0,0.607,0.075,0.821,0.227c0.219,0.148,0.424,0.375,0.622,0.674c0.109,0.158,0.209,0.269,0.299,0.339
					c0.09,0.068,0.201,0.104,0.338,0.104c0.202,0,0.377-0.068,0.524-0.203c0.143-0.135,0.214-0.3,0.214-0.492
					c0-0.192-0.063-0.397-0.192-0.617c-0.128-0.218-0.314-0.424-0.556-0.62c-0.245-0.192-0.54-0.352-0.89-0.474
					c-0.353-0.123-0.737-0.184-1.157-0.184c-0.674,0-1.26,0.138-1.746,0.419c-0.486,0.279-0.859,0.674-1.113,1.183
					c-0.259,0.511-0.387,1.098-0.387,1.765c0,0.981,0.281,1.764,0.841,2.349c0.562,0.582,1.344,0.876,2.348,0.876
					c0.469,0,0.893-0.065,1.269-0.192c0.377-0.126,0.688-0.295,0.934-0.502c0.248-0.207,0.434-0.425,0.554-0.656
					c0.121-0.229,0.182-0.446,0.182-0.646c0-0.169-0.066-0.331-0.198-0.481C307.198,478.493,307.033,478.417,306.835,478.417z"/>
				<path id="XMLID_382_" style="fill:#271F36;" d="M313.647,475.453c-0.288-0.29-0.629-0.518-1.027-0.674
					c-0.4-0.161-0.846-0.239-1.336-0.239c-0.483,0-0.924,0.078-1.326,0.234c-0.399,0.158-0.737,0.38-1.019,0.669
					c-0.281,0.288-0.498,0.636-0.649,1.045c-0.146,0.408-0.224,0.858-0.224,1.349c0,0.485,0.076,0.929,0.219,1.332
					c0.152,0.402,0.369,0.75,0.657,1.048c0.285,0.292,0.627,0.521,1.016,0.676c0.392,0.159,0.835,0.239,1.326,0.239
					c0.492,0,0.937-0.08,1.336-0.234c0.394-0.158,0.735-0.382,1.02-0.675c0.286-0.291,0.502-0.641,0.656-1.05
					c0.146-0.408,0.222-0.855,0.222-1.336c0-0.489-0.075-0.932-0.221-1.339C314.148,476.096,313.933,475.749,313.647,475.453z
					 M312.455,479.368c-0.29,0.372-0.682,0.557-1.171,0.557c-0.324,0-0.605-0.086-0.846-0.253c-0.24-0.168-0.423-0.409-0.553-0.729
					c-0.129-0.317-0.194-0.684-0.194-1.108c0-0.428,0.066-0.803,0.197-1.125c0.131-0.321,0.314-0.563,0.556-0.727
					c0.242-0.164,0.522-0.246,0.84-0.246c0.489,0,0.881,0.182,1.171,0.555c0.289,0.367,0.436,0.881,0.436,1.543
					C312.891,478.487,312.744,478.999,312.455,479.368z"/>
				<path id="XMLID_381_" style="fill:#271F36;" d="M323.569,474.813c-0.32-0.173-0.705-0.262-1.146-0.262
					c-0.381,0-0.726,0.081-1.039,0.241c-0.313,0.161-0.607,0.408-0.881,0.738c-0.191-0.326-0.431-0.572-0.725-0.735
					c-0.292-0.162-0.641-0.243-1.048-0.243c-0.394,0-0.748,0.079-1.07,0.241c-0.319,0.156-0.619,0.403-0.903,0.738v-0.153
					c0-0.261-0.074-0.466-0.222-0.616c-0.15-0.145-0.334-0.221-0.557-0.221c-0.227,0-0.412,0.078-0.555,0.239
					c-0.14,0.157-0.21,0.389-0.21,0.694v4.636c0,0.336,0.078,0.591,0.235,0.765c0.156,0.171,0.357,0.257,0.604,0.257
					c0.248,0,0.447-0.087,0.603-0.257c0.15-0.173,0.226-0.428,0.226-0.765v-2.188c0-0.684,0.086-1.206,0.253-1.566
					c0.168-0.369,0.516-0.551,1.048-0.551c0.263,0,0.459,0.072,0.581,0.22c0.122,0.142,0.198,0.331,0.226,0.552
					c0.027,0.226,0.04,0.544,0.04,0.953v2.581c0,0.341,0.078,0.594,0.232,0.767c0.148,0.17,0.349,0.255,0.594,0.255
					c0.254,0,0.455-0.085,0.611-0.255c0.156-0.173,0.231-0.426,0.231-0.767v-2.154c0-0.694,0.062-1.178,0.178-1.452
					c0.109-0.209,0.259-0.383,0.45-0.508c0.192-0.125,0.395-0.192,0.609-0.192c0.264,0,0.463,0.072,0.596,0.215
					c0.128,0.142,0.209,0.319,0.239,0.529c0.029,0.209,0.043,0.486,0.043,0.836v2.725c0,0.336,0.079,0.591,0.235,0.765
					c0.157,0.171,0.356,0.257,0.603,0.257c0.253,0,0.458-0.085,0.612-0.255c0.154-0.173,0.229-0.426,0.229-0.767v-3.163
					c0-0.629-0.068-1.091-0.206-1.385C324.128,475.237,323.888,474.987,323.569,474.813z"/>
			</g>
			<g id="XMLID_366_">
				<path id="XMLID_379_" style="fill:#271F36;" d="M245.273,477.444c-0.001-0.004-0.001-0.006-0.001-0.011
					C245.272,477.438,245.272,477.44,245.273,477.444z"/>
				<path id="XMLID_378_" style="fill:#271F36;" d="M245.355,477.961c0.001,0,0.001,0,0.001,0c-0.031-0.147-0.055-0.294-0.073-0.438
					C245.301,477.669,245.326,477.816,245.355,477.961z"/>
				<path id="XMLID_377_" style="fill:#271F36;" d="M245.891,479.466c-0.004-0.006-0.007-0.013-0.01-0.021
					C245.885,479.452,245.888,479.46,245.891,479.466z"/>
				<path id="XMLID_376_" style="fill:#271F36;" d="M245.84,479.366c-0.014-0.027-0.027-0.056-0.041-0.084
					C245.813,479.311,245.826,479.338,245.84,479.366z"/>
				<path id="XMLID_375_" style="fill:#271F36;" d="M245.506,478.541c0.079,0.25,0.175,0.492,0.286,0.724
					c-0.113-0.236-0.206-0.479-0.284-0.724H245.506z"/>
				<path id="XMLID_374_" style="fill:#271F36;" d="M250.736,470.681l-0.076-0.259c0.299-0.063,0.524-0.329,0.524-0.646
					c0-0.364-0.297-0.659-0.66-0.659c-0.365,0-0.66,0.295-0.66,0.659c0,0.317,0.225,0.583,0.522,0.646l0.084,0.289
					c-1.021,0.14-1.834,0.539-1.834,0.539l0.144,0.441c0.618-0.206,1.153-0.331,1.64-0.383c0.476-0.051,0.834-0.073,1.126-0.073
					c0.314,0,0.544,0.025,0.809,0.069l0.075-0.476C252.429,470.828,251.698,470.603,250.736,470.681z"/>
				<path id="XMLID_373_" style="fill:#271F36;" d="M245.453,473.188c-0.017,0.024-0.497,0.465-0.876,1.28
					c-0.016-0.026-0.035-0.051-0.056-0.074c-0.113-0.124-0.272-0.187-0.473-0.184c-0.002,0-0.006,0-0.01,0
					c-0.124,0-0.21-0.042-0.266-0.092c0.055-0.071,0.089-0.16,0.089-0.258c0-0.231-0.187-0.419-0.419-0.419
					c-0.23,0-0.417,0.188-0.417,0.419c0,0.231,0.187,0.417,0.417,0.417c0.037,0,0.071-0.005,0.105-0.012
					c0.102,0.113,0.265,0.214,0.504,0.209c0.123-0.001,0.214,0.03,0.273,0.097c0.07,0.076,0.093,0.185,0.1,0.267
					c-0.001,0.002-0.001,0.004-0.002,0.004c-0.272,0.743-0.195,1.668-0.195,1.668l0.661,0.026c0.013-0.336,0.062-0.926,0.232-1.393
					c0.328-0.906,0.741-1.472,0.757-1.496l0.004-0.005c0.024-0.031,0.047-0.06,0.071-0.089l-0.196-0.142L245.453,473.188z"/>
				<path id="XMLID_372_" style="fill:#271F36;" d="M257.294,471.787c-0.23,0-0.418,0.187-0.418,0.417
					c0,0.037,0.006,0.071,0.015,0.104c-0.115,0.104-0.214,0.267-0.211,0.507c0.002,0.123-0.03,0.212-0.096,0.273
					c-0.053,0.047-0.12,0.072-0.185,0.088c-0.492-0.689-1.097-1.109-1.097-1.109l-0.474,0.508c0.358,0.326,0.724,0.734,1.08,1.244
					c0.246,0.352,0.499,0.806,0.71,1.259l0.64-0.304c0,0-0.292-0.722-0.704-1.369c0.071-0.025,0.143-0.064,0.207-0.12
					c0.125-0.113,0.187-0.273,0.183-0.474c-0.001-0.13,0.042-0.218,0.093-0.276c0.071,0.054,0.16,0.089,0.257,0.089
					c0.232,0,0.419-0.187,0.419-0.419C257.712,471.974,257.525,471.787,257.294,471.787z"/>
				<path id="XMLID_371_" style="fill:#271F36;" d="M255.633,477.537c-0.88,0.429-2.33,0.996-4.237,1.262
					c-0.749,0.104-1.474,0.142-2.143,0.142c-0.869,0-1.637-0.065-2.226-0.139c-0.672-0.085-1.198-0.188-1.52-0.261
					c0.078,0.245,0.171,0.487,0.284,0.724c0.002,0.006,0.005,0.013,0.008,0.017c0.014,0.027,0.027,0.056,0.041,0.084
					c0.013,0.027,0.027,0.054,0.041,0.079c0.004,0.007,0.007,0.015,0.01,0.021c0.189,0.356,0.417,0.684,0.675,0.968
					c0.9,0.984,1.816,1.139,1.825,1.141l0.015,0.002l0.013,0.005c0.009,0.003,0.821,0.265,2.057,0.265
					c1.216,0,2.409-0.245,3.545-0.729c0.842-0.431,1.639-1.085,2.033-1.668c0.305-0.452,0.526-0.934,0.656-1.434
					c0.07-0.266,0.125-0.693,0.092-1.141C256.555,477.042,256.163,477.279,255.633,477.537z"/>
				<path id="XMLID_367_" style="fill:#271F36;" d="M252.322,471.655c-0.264-0.043-0.477-0.068-0.777-0.068
					c-0.279,0-0.626,0.023-1.089,0.071c-0.465,0.049-0.982,0.171-1.583,0.373c-0.842,0.282-1.604,0.724-2.204,1.28l-0.02,0.019
					c-0.089,0.081-0.275,0.254-0.488,0.525c-0.026,0.037-0.408,0.578-0.709,1.408c-0.226,0.622-0.216,1.527-0.216,1.537v0.002
					c0,0.212,0.012,0.423,0.035,0.632c0,0.005,0,0.007,0.001,0.011c0.003,0.027,0.007,0.053,0.01,0.079
					c0.018,0.144,0.043,0.291,0.074,0.438c0.438,0.112,3.048,0.721,5.966,0.314c1.829-0.255,3.218-0.795,4.061-1.204
					c0.701-0.34,1.151-0.647,1.325-0.774c-0.173-0.643-0.651-1.65-1.089-2.279C254.367,472.229,253.016,471.769,252.322,471.655z
					 M248.679,476.914c-0.971,0-1.759-0.787-1.759-1.759c0-0.972,0.788-1.76,1.759-1.76c0.973,0,1.761,0.788,1.761,1.76
					C250.439,476.127,249.652,476.914,248.679,476.914z M253.829,475.617c-0.601,0-1.089-0.489-1.089-1.09
					c0-0.602,0.487-1.089,1.089-1.089c0.601,0,1.089,0.487,1.089,1.089C254.918,475.128,254.429,475.617,253.829,475.617z"/>
			</g>
		</g>
	</g>
</g>
</svg>
