<?xml version="1.0" encoding="utf-8"?>
<!-- Generator: Adobe Illustrator 27.5.0, SVG Export Plug-In . SVG Version: 6.00 Build 0)  -->
<svg version="1.1" xmlns="http://www.w3.org/2000/svg" xmlns:xlink="http://www.w3.org/1999/xlink" x="0px" y="0px"
	 viewBox="0 0 3710 3710" style="enable-background:new 0 0 3710 3710;" xml:space="preserve">
<g id="Background">
	<g>
		<g>
			<rect style="fill:#FFFFFF;" width="3710" height="3710"/>
		</g>
	</g>
</g>
<g id="Illustration">
	<g>
		<path style="fill:#F4F7FA;" d="M3045.776,2756.949c-145.486,197.471-329.348,286.944-430.139,334.551
			c-580.343,274.117-1417.865,144.406-1849.494-421.43c-59.856-78.467-285.771-393.247-274.811-840.36
			c14.822-604.586,457.956-1255.25,1112.516-1360.329c650.752-104.468,1129.886,391.415,1213.583,482.054
			C3266.727,1437.997,3412.846,2258.722,3045.776,2756.949z"/>
		<g>
			<linearGradient id="SVGID_1_" gradientUnits="userSpaceOnUse" x1="456.4596" y1="1268.4336" x2="1194.2896" y2="1268.4336">
				<stop  offset="0" style="stop-color:#FF9085"/>
				<stop  offset="1" style="stop-color:#FB6FBB"/>
			</linearGradient>
			<polygon style="opacity:0.5;fill:url(#SVGID_1_);" points="1014.835,930.21 646.012,925.767 456.46,1269.335 646.012,1611.1 
				1014.835,1603.151 1194.29,1265.828 			"/>
			
				<linearGradient id="SVGID_00000003076932901521178340000007328308301884402848_" gradientUnits="userSpaceOnUse" x1="1078.1619" y1="1642.0082" x2="1772.8562" y2="1642.0082">
				<stop  offset="0" style="stop-color:#AA80F9"/>
				<stop  offset="0.9964" style="stop-color:#6165D7"/>
			</linearGradient>
			<polygon style="opacity:0.47;fill:url(#SVGID_00000003076932901521178340000007328308301884402848_);" points="
				1603.754,1308.374 1256.489,1310.819 1078.162,1647.482 1256.489,1975.642 1603.754,1961.53 1772.856,1630.921 			"/>
			
				<linearGradient id="SVGID_00000075162766035641144860000010710798828229468075_" gradientUnits="userSpaceOnUse" x1="1078.1619" y1="886.9271" x2="1772.8562" y2="886.9271">
				<stop  offset="0" style="stop-color:#FF9085"/>
				<stop  offset="1" style="stop-color:#FB6FBB"/>
			</linearGradient>
			<polygon style="opacity:0.5;fill:url(#SVGID_00000075162766035641144860000010710798828229468075_);" points="1603.754,565.343 
				1256.489,554.516 1078.162,884.363 1256.489,1219.339 1603.754,1218.499 1772.856,894.352 			"/>
		</g>
		<g>
			
				<linearGradient id="SVGID_00000160881702461417219520000000079237706181159077_" gradientUnits="userSpaceOnUse" x1="1308.4011" y1="1434.9882" x2="2018.891" y2="1434.9882" gradientTransform="matrix(0.9996 0.0285 -0.0285 0.9996 14.8367 -55.4937)">
				<stop  offset="0" style="stop-color:#FF9085"/>
				<stop  offset="1" style="stop-color:#FB6FBB"/>
			</linearGradient>
			<polygon style="opacity:0.5;fill:url(#SVGID_00000160881702461417219520000000079237706181159077_);" points="1829.155,1062.64 
				1474.426,1041.741 1281.887,1413.746 1452.812,1801.046 1807.881,1810.017 1991.819,1443.621 			"/>
			
				<linearGradient id="SVGID_00000082327084799534568060000018234751320069844906_" gradientUnits="userSpaceOnUse" x1="1908.4375" y1="1628.2145" x2="2839.4409" y2="1628.2145" gradientTransform="matrix(0.9996 0.0285 -0.0285 0.9996 14.8367 -55.4937)">
				<stop  offset="0" style="stop-color:#FF9085"/>
				<stop  offset="1" style="stop-color:#FB6FBB"/>
			</linearGradient>
			<polygon style="opacity:0.5;fill:url(#SVGID_00000082327084799534568060000018234751320069844906_);" points="2053.76,1446.228 
				1870.828,1811.607 2640.872,1831.062 2811.723,1478.125 			"/>
			
				<linearGradient id="SVGID_00000119805436775793580460000006174030316585153447_" gradientUnits="userSpaceOnUse" x1="1906.5907" y1="1024.3304" x2="2580.8262" y2="1024.3304" gradientTransform="matrix(0.9996 0.0285 -0.0285 0.9996 14.8367 -55.4937)">
				<stop  offset="0" style="stop-color:#AA80F9"/>
				<stop  offset="0.9964" style="stop-color:#6165D7"/>
			</linearGradient>
			<polygon style="opacity:0.47;fill:url(#SVGID_00000119805436775793580460000006174030316585153447_);" points="2410.941,681.518 
				2074.492,655.239 1891.708,1014.452 2053.442,1394.769 2390.212,1409.728 2565.046,1055.698 			"/>
			
				<linearGradient id="SVGID_00000143589582631269610690000002993916399747444892_" gradientUnits="userSpaceOnUse" x1="2489.4946" y1="1034.5208" x2="3182.2852" y2="1034.5208" gradientTransform="matrix(0.9996 0.0285 -0.0285 0.9996 14.8367 -55.4937)">
				<stop  offset="0" style="stop-color:#AA80F9"/>
				<stop  offset="0.9964" style="stop-color:#6165D7"/>
			</linearGradient>
			<polygon style="opacity:0.47;fill:url(#SVGID_00000143589582631269610690000002993916399747444892_);" points="3030.082,737.153 
				2484.206,686.41 2637.484,1059.586 2463.532,1412.718 3010.591,1421.887 3165.82,1088.432 			"/>
		</g>
		<g>
			
				<linearGradient id="SVGID_00000039829051554123481890000013519195422201955244_" gradientUnits="userSpaceOnUse" x1="-4533.4819" y1="268.4008" x2="-4365.624" y2="1294.9191" gradientTransform="matrix(-0.981 -0.194 -0.194 0.981 -1330.1932 236.6994)">
				<stop  offset="0" style="stop-color:#FFC444"/>
				<stop  offset="0.9964" style="stop-color:#F36F56"/>
			</linearGradient>
			<path style="fill:url(#SVGID_00000039829051554123481890000013519195422201955244_);" d="M2933.381,1438.507
				c0,0,16.083-63.077,42.848-79.73c26.763-16.647,64.593-34.448,73.262-41.761c8.667-7.315,18.792,14.548-6.188,31.277
				c-24.972,16.732-24.972,16.732-24.972,16.732c-0.524,4.614,0.178,8.203,1.022,10.729c3.957,11.842,17.454,19.961,34.136,21.497
				c64.086,13.421,89.126,14.077,98.898,11.216c1.45-0.425,7.024-2.233,9.379,0.243c3.77,3.972-3.009,16.561-5.902,20.972
				c-17.34,26.483-77.526,38.001-122.588,17.29c-16.461-7.558-22.761-15.683-34.773-13.645
				c-19.073,3.237-30.789,28.399-37.718,49.229L2933.381,1438.507z"/>
			<path style="fill:#FFFFFF;" d="M2985.07,1458.509c-18.249-16.222-36.498-32.441-54.748-48.662
				c-6.679,6.75-104.095,101.812-240.278,72.997c-93.766-19.845-147.851-96.847-182.491-145.995
				c-104.054-147.628-41.822-255.95-153.859-356.263c-31.114-27.854-92.142-61.585-132.043-51.298
				c-95.071,24.507-149.803,310.417-57.791,535.305c18.572,45.39,120.839,295.322,352.819,322.399
				C2703.984,1808.856,2902.6,1676.885,2985.07,1458.509z"/>
			
				<linearGradient id="SVGID_00000001653254618608656110000010969482888014526895_" gradientUnits="userSpaceOnUse" x1="-4191.0703" y1="1465.1917" x2="-3322.5803" y2="1465.1917" gradientTransform="matrix(-1 0 0 1 -1206.0001 0)">
				<stop  offset="0" style="stop-color:#AA80F9"/>
				<stop  offset="0.9964" style="stop-color:#6165D7"/>
			</linearGradient>
			<path style="opacity:0.15;fill:url(#SVGID_00000001653254618608656110000010969482888014526895_);" d="M2242.943,1203.024
				c171.452,135.421,152.368,395.154,257.769,408.322c32.194,4.023,30.424-20.658,107.213-45.622
				c112.311-36.515,165.075,0.369,244.08-27.374c32.72-11.49,75.284-36.033,117.201-93.941c5.289,4.703,10.579,9.401,15.865,14.101
				c-82.47,218.375-281.086,350.347-468.391,328.483c-231.98-27.076-334.247-277.009-352.819-322.399
				c-43.174-105.522-54.037-224.476-43.585-323.558C2159.852,1152.584,2202.841,1171.352,2242.943,1203.024z"/>
			
				<linearGradient id="SVGID_00000147911935029154016610000000455786280912003255_" gradientUnits="userSpaceOnUse" x1="1468.803" y1="1572.8718" x2="2231.0239" y2="1572.8718">
				<stop  offset="0" style="stop-color:#AA80F9"/>
				<stop  offset="0.9964" style="stop-color:#6165D7"/>
			</linearGradient>
			<path style="fill:url(#SVGID_00000147911935029154016610000000455786280912003255_);" d="M1468.803,927.491
				c71.652-20.149,176.663-43.714,305.271-50.982c183.429-10.368,275.142-15.552,340.134,28.13
				c150.105,100.888,33.895,333.736,95.34,910.947c26.115,245.329,37.89,229.458-20.963,316.774
				c-119.576,177.4-455.453,191.939-609.315,38.129c-81.318-81.292-91.806-85.878-93.762-178.635
				C1477.791,1625.722,1471.971,1279.996,1468.803,927.491z"/>
			<path style="fill:#FFFFFF;" d="M2259.82,933.017c-95.362-49.018-183.92-57.983-233.961-59.278
				c-45.39,112.125-102.407,281.129-129.367,492.575c-24.333,190.844-12.966,317.116,0.064,579.295
				c8.231,165.632,16.618,405.628,14.095,701.279c50.5,16.197,91.796,20.001,119.494,20.62c98.173,2.2,130.96-33.269,231.236-23.449
				c43.742,4.285,54.626,12.708,69.344,2.901c41.024-27.351,10.31-128.783-10.28-238.923
				c-31.83-170.306,2.831-135.254-28.256-411.044c-25.772-228.642-61.322-356.805-28.264-369.942
				C2281.682,1619.994,2298.386,952.842,2259.82,933.017z"/>
			
				<linearGradient id="SVGID_00000049186198415396819190000008408027890698551426_" gradientUnits="userSpaceOnUse" x1="1451.7544" y1="366.2926" x2="2294.3994" y2="2272.5161">
				<stop  offset="0" style="stop-color:#AA80F9"/>
				<stop  offset="0.9964" style="stop-color:#6165D7"/>
			</linearGradient>
			<path style="opacity:0.15;fill:url(#SVGID_00000049186198415396819190000008408027890698551426_);" d="M2163.735,2027.819
				c1.293-172.032,92.948-196.358,83.717-344.354c-9.293-149.052-104.313-157.234-101.026-285.502
				c3.996-155.992,146.096-205.245,140.557-346.995c-1.869-47.791-20.014-89.945-43.6-125.644
				c-88.98-41.896-170.387-50.367-217.524-51.585c-45.39,112.125-102.407,281.129-129.367,492.575
				c-24.333,190.841-12.966,317.116,0.064,579.295c8.231,165.632,16.62,405.626,14.095,701.279
				c50.5,16.197,91.798,20.001,119.494,20.62c98.173,2.2,130.962-33.269,231.236-23.449c43.742,4.285,54.628,12.708,69.344,2.901
				c35.84-23.899,16.92-104.355-2.16-197.754c-30.133-38.91-61.197-76.326-94.288-146.419
				C2209.274,2249.835,2162.805,2151.406,2163.735,2027.819z"/>
			<path style="fill:#FFFFFF;" d="M1806.637,1398.404c22.454,85.278,20.382,153.164,17.985,215.8
				c-13.2,345.081-19.913,518.624-25.691,567.757c-28.054,238.582-47.876,223.725-41.07,320.614
				c3.645,51.867,12.145,96.267-16.23,128.905c-33.84,38.927-82.531,17.866-202.332,33.311
				c-110.141,14.204-113.049,37.688-232.071,51.995c-48.357,5.812-180.429,21.689-194.228-15.879
				c-7.379-20.089,19.938-53.07,46.243-69.364c42.866-26.558,79.399-6.537,93.868-27.72c16.587-24.284-28.191-55.297-29.643-113.576
				c-1.445-58.088,41.8-76.97,68.646-148.306c25.015-66.461,14.931-123.025,11.073-163.098
				c-17.211-178.748,61.463-320.11,76.99-556.933c24.181-368.782-133.498-530.776-26.465-648.942
				c57.957-63.982,153.335-70.75,212.974-69.305c61.961,129.079,115.326,230.639,153.114,300.388
				C1760.6,1279.359,1787.364,1325.191,1806.637,1398.404z"/>
			<g>
				<path style="fill:#FFFFFF;" d="M2046.845,1303.351c-8.799-30.294-36.584-59.328-25.693-95.057
					c6.421-21.055,23.309-34.698,36.288-42.838c85.531-19.223,143.064-99.24,134.554-183.236
					c-3.416-33.741-17.21-64.807-38.22-90.013c-52.206-13.96-97.291-17.68-127.914-18.469
					c-45.39,112.125-102.407,281.129-129.367,492.575c-11.481,90.046-14.956,165.8-14.118,248.155
					c14.823-47.327,35.628-82.677,57.688-109.515C1977.418,1459.502,2068.27,1377.124,2046.845,1303.351z"/>
			</g>
			<g style="opacity:0.64;">
				
					<linearGradient id="SVGID_00000176721746694810796910000014154379151033940922_" gradientUnits="userSpaceOnUse" x1="1318.5598" y1="1809.3892" x2="1826.0387" y2="1809.3892">
					<stop  offset="0" style="stop-color:#AA80F9"/>
					<stop  offset="0.9964" style="stop-color:#6165D7"/>
				</linearGradient>
				<path style="opacity:0.3;fill:url(#SVGID_00000176721746694810796910000014154379151033940922_);" d="M1806.637,1398.404
					c-19.273-73.213-46.038-119.045-86.836-194.355c-37.793-69.751-91.154-171.312-153.114-300.388
					c-14.46-0.35-31.048-0.194-48.668,1.119c-94.324,130.278-100.303,203.105-78.395,246.33
					c21.352,42.116,66.003,50.305,71.834,95.781c9.122,71.101-94.347,95.407-119.723,191.559
					c-22.154,83.936,29.687,167.766,78.476,246.675c82.99,134.207,158.977,150.789,156.188,222.649
					c-2.906,74.762-85.921,76.094-119.728,167.614c-52.988,143.451,111.67,246.604,62.256,373.54
					c-38.293,98.375-153.949,79.465-225.082,205.928c-11.282,20.063-19.305,40.388-25.285,60.423
					c107.689-14.399,114.309-36.763,220.74-50.488c119.8-15.447,168.486,5.615,202.331-33.311
					c28.378-32.638,19.875-77.038,16.23-128.905c-6.806-96.889,13.019-82.031,41.07-320.614
					c5.779-49.133,12.491-222.676,25.691-567.757C1827.019,1551.566,1829.092,1483.682,1806.637,1398.404z"/>
			</g>
			<path style="fill:#FFFFFF;" d="M1554.872,1199.302c48.647,43.242,83.847,57.837,89.924,99.08
				c6.7,45.433-31.162,60.632-24.724,104.868c8.049,55.334,70.759,55.455,103.075,126.175
				c21.152,46.298,2.703,64.675,15.413,124.599c7.746,36.525,26.919,87.419,78.996,143.924
				c2.136-54.902,4.472-115.963,7.067-183.745c2.397-62.636,4.469-130.522-17.985-215.8
				c-19.273-73.213-46.037-119.045-86.836-194.355c-37.788-69.75-91.154-171.31-153.114-300.388
				c-34.951-0.845-82.158,1.23-126.934,15.89c-15.465,28.211-18.028,50.632-18.468,62.67
				C1417.798,1077.464,1522.388,1170.43,1554.872,1199.302z"/>
			<g>
				
					<linearGradient id="SVGID_00000109008860119886203050000010805691977212543167_" gradientUnits="userSpaceOnUse" x1="1705.5721" y1="659.386" x2="1725.9719" y2="116.0049" gradientTransform="matrix(0.917 0.3988 -0.3988 0.917 399.6047 -184.8945)">
					<stop  offset="0" style="stop-color:#FFC444"/>
					<stop  offset="0.9964" style="stop-color:#F36F56"/>
				</linearGradient>
				<path style="fill:url(#SVGID_00000109008860119886203050000010805691977212543167_);" d="M1787.771,676.104
					c0.456,54.38-5.61,97.507-11.35,127.041c-6.574,33.841-11.313,42.582-17.359,49.676c-9.1,10.677-22.893,19.635-100.816,38.959
					c-42.405,10.512-47.86,10.226-48.797,14.434c-4.567,20.527,111.061,90.492,230.521,73.629
					c73.111-10.32,139.632-52.03,135.549-73.935c-4.111-22.044-77.14-10.215-98.907-50.096
					c-15.142-27.743,1.831-67.129,21.895-99.746C1879.075,719.657,1807.202,712.514,1787.771,676.104z"/>
				<g>
					
						<linearGradient id="SVGID_00000109733160029140008940000007744210657306355382_" gradientUnits="userSpaceOnUse" x1="321.8305" y1="788.4255" x2="183.5135" y2="437.1255" gradientTransform="matrix(-1 0.0037 0.0037 1 2039.0248 162.9159)">
						<stop  offset="0" style="stop-color:#311944"/>
						<stop  offset="1" style="stop-color:#6B3976"/>
					</linearGradient>
					<path style="fill:url(#SVGID_00000109733160029140008940000007744210657306355382_);" d="M1923.467,697.606
						c17.255-22.921,18.318-62.936-1.561-88.23c-17.109-21.766-44.034-24.869-60.152-26.733
						c-46.707-5.394-105.641,14.106-126.141,57.094c-12.147,25.477,14.13,78.41,18.243,87.926
						c4.66,10.76,13.105,14.452,20.921,22.587c10.829,11.284,27.785,29.225,55.459,59.23c2.15-8.853,5.42-19.815,10.614-31.695
						c1.999-4.573,10.03-22.433,22.18-37.242C1887.372,710.857,1907.111,719.326,1923.467,697.606z"/>
					
						<linearGradient id="SVGID_00000114058018526947620930000014905958032382293435_" gradientUnits="userSpaceOnUse" x1="1274.681" y1="562.9583" x2="1268.3204" y2="1075.431" gradientTransform="matrix(0.9979 -0.0649 0.0649 0.9979 531.9276 219.5886)">
						<stop  offset="0" style="stop-color:#FFC444"/>
						<stop  offset="0.9964" style="stop-color:#F36F56"/>
					</linearGradient>
					<path style="fill:url(#SVGID_00000114058018526947620930000014905958032382293435_);" d="M1790.76,784.248
						c0,0,30.705,50.375,91.841,46.397c54.737-3.564,62.754-126.314,27.793-152.363c-11.665-8.689-35.024-12.298-54.018-6.975
						c-11.217,3.145-15.018,7.805-33.448,12.585c-17.002,4.413-21.801,2.528-26.934,6.844c-6.417,5.404-11.12,18.647-0.401,54.531
						c-10.445-10.573-22.979-14.632-31.863-10.438c-1.416,0.673-5.173,3.227-7.29,7.102
						C1748.787,755.951,1761.593,773.857,1790.76,784.248z"/>
					
						<linearGradient id="SVGID_00000013872985654115268620000002163016046391670674_" gradientUnits="userSpaceOnUse" x1="279.5763" y1="805.247" x2="141.1191" y2="453.5908" gradientTransform="matrix(-1 0.0037 0.0037 1 2039.0248 162.9159)">
						<stop  offset="0" style="stop-color:#311944"/>
						<stop  offset="1" style="stop-color:#6B3976"/>
					</linearGradient>
					<path style="fill:url(#SVGID_00000013872985654115268620000002163016046391670674_);" d="M1793.518,683.394
						c2.639,1.969-5.431,11.817-6.031,25.756c-1.171,27.058,26.218,59.537,54.155,62.292c16.519,1.627,21.059-8.329,48.366-11.215
						c16.905-1.785,30.979,0.365,39.832,2.3c8.581,29.676,0.507,59.262-19.329,72.988c-21.353,14.78-48.634,5.814-60.036,2.065
						c-7.631-2.509-32.079-10.494-44.856-32.915c-13.314-23.363-0.249-37.445-15.521-53.248
						c-7.704-7.971-17.824-11.422-27.674-26.853c-2.675-4.193-4.461-7.9-5.553-10.396
						C1770.994,699.203,1789.695,680.544,1793.518,683.394z"/>
					
						<linearGradient id="SVGID_00000074438455148071087700000007320922435740597433_" gradientUnits="userSpaceOnUse" x1="144.0664" y1="593.3594" x2="151.2672" y2="657.5535" gradientTransform="matrix(-1 0.0037 0.0037 1 2039.0248 162.9159)">
						<stop  offset="0" style="stop-color:#FFC444"/>
						<stop  offset="1" style="stop-color:#F36F56"/>
					</linearGradient>
					<path style="fill:url(#SVGID_00000074438455148071087700000007320922435740597433_);" d="M1909.97,773.527
						c0,0-11.822,6.175-32.25,5.028c-0.992-0.058-2.09,0.235-2.216,0.749c-0.47,1.937,12.636,10.627,24.713,7.233
						c8.573-2.413,15.244-10.529,14.09-12.595C1913.818,773.073,1911.878,773.186,1909.97,773.527z"/>
				</g>
			</g>
			<path style="fill:#FFFFFF;" d="M1594.444,1469.537c31.208,66.277-112.205,220.64-271.604,293.937
				c-32.476,14.941-265.701,122.175-369.647,19.059c-85.89-85.214-30.458-261.407-10.669-324.309
				c97.178-308.878,372.159-482.004,497.228-538.673c93.34,233.387,61.817,353.387,40.181,385.859
				c-22.604,33.92-85.683,105.175-152.677,167.948c-47.126,44.149-76.473,65.636-72.525,72.521
				c4.911,8.572,60.149-7.616,274.703-112.05C1554.307,1437.858,1583.778,1446.907,1594.444,1469.537z"/>
			
				<linearGradient id="SVGID_00000122717877980249058140000005847861581601369229_" gradientUnits="userSpaceOnUse" x1="-3189.4753" y1="2396.7898" x2="-3134.9644" y2="1918.3009" gradientTransform="matrix(-1 0 0 1 -1206.0001 0)">
				<stop  offset="0" style="stop-color:#444B8C"/>
				<stop  offset="0.9964" style="stop-color:#26264F"/>
			</linearGradient>
			<path style="fill:url(#SVGID_00000122717877980249058140000005847861581601369229_);" d="M2125.065,1082.171l-379.774,35.569
				c-7.963,0.745-14.653,6.297-16.855,13.986L1586.712,1626.6c-3.751,13.097,6.802,25.884,20.372,24.687l382.895-33.785
				c8.052-0.71,14.822-6.336,16.995-14.122l138.602-496.657C2149.237,1093.611,2138.617,1080.902,2125.065,1082.171z"/>
			
				<linearGradient id="SVGID_00000095310861538332845330000006495356571009050280_" gradientUnits="userSpaceOnUse" x1="-2857.2168" y1="1350.0007" x2="-2664.4497" y2="2528.8481" gradientTransform="matrix(-1 0 0 1 -1206.0001 0)">
				<stop  offset="0" style="stop-color:#FFC444"/>
				<stop  offset="0.9964" style="stop-color:#F36F56"/>
			</linearGradient>
			<path style="fill:url(#SVGID_00000095310861538332845330000006495356571009050280_);" d="M1540.255,1454.039
				c0,0,130.787-133.826,184.014-153.592c53.224-19.772,6.099,121.381-25.085,141.289c-31.183,19.908-43.35,27.513-67.685,30.551
				c-24.33,3.045-24.33,3.045-24.33,3.045l-31.938,17.028C1575.23,1492.36,1534.172,1487.497,1540.255,1454.039z"/>
			
				<linearGradient id="SVGID_00000069373556245373528170000013037145407444621198_" gradientUnits="userSpaceOnUse" x1="-3292.8406" y1="2385.0115" x2="-3238.3293" y2="1906.522" gradientTransform="matrix(-1 0 0 1 -1206.0001 0)">
				<stop  offset="0" style="stop-color:#444B8C"/>
				<stop  offset="0.9964" style="stop-color:#26264F"/>
			</linearGradient>
			<path style="opacity:0.3;fill:url(#SVGID_00000069373556245373528170000013037145407444621198_);" d="M1872.289,1510.214
				c14.323-78.229-29.813-138.89,12.483-212.216c43.508-75.43,119.898-62.697,174.765-124.833
				c17.466-19.779,33.14-47.802,40.841-88.68l24.687-2.312c13.552-1.27,24.172,11.438,20.512,24.55l-138.602,496.658
				c-2.173,7.786-8.943,13.412-16.995,14.122l-194.439,17.157C1845.01,1590.259,1865.456,1547.526,1872.289,1510.214z"/>
		</g>
		<g>
			<g>
				
					<linearGradient id="SVGID_00000167397614674965981750000003203638050260337322_" gradientUnits="userSpaceOnUse" x1="1663.983" y1="2534.8821" x2="1011.7203" y2="2443.3369">
					<stop  offset="0" style="stop-color:#444B8C"/>
					<stop  offset="0.9964" style="stop-color:#26264F"/>
				</linearGradient>
				<path style="fill:url(#SVGID_00000167397614674965981750000003203638050260337322_);" d="M2683.161,3034.725
					c0,29.632-21.037,55.124-46.85,56.654L817.644,3202.462c-34.454,2.042-73.346-27.108-73.346-61.552V1868.163
					c0-34.445,39.828-63.407,74.281-61.979l1817.732,77.809c25.813,1.071,46.85,26.187,46.85,55.819V3034.725z"/>
				
					<linearGradient id="SVGID_00000146469900510491846410000006989622584910382251_" gradientUnits="userSpaceOnUse" x1="2370.2722" y1="1659.3617" x2="968.5256" y2="3427.5771">
					<stop  offset="0" style="stop-color:#AA80F9"/>
					<stop  offset="0.9964" style="stop-color:#6165D7"/>
				</linearGradient>
				<path style="fill:url(#SVGID_00000146469900510491846410000006989622584910382251_);" d="M2716.879,3036.804
					c0,29.775-21.139,55.39-47.077,56.927L831.711,3202.694c-34.62,2.052-63.075-24.58-63.075-59.191V1864.599
					c0-34.612,28.455-61.75,63.075-60.315l1838.091,76.222c25.938,1.075,47.077,26.314,47.077,56.09V3036.804z"/>
				
					<linearGradient id="SVGID_00000172432419059290134580000000610536048006098329_" gradientUnits="userSpaceOnUse" x1="866.098" y1="2920.1038" x2="4032.208" y2="3037.8801" gradientTransform="matrix(1.0022 -0.0087 0 1 -1.4271 6.3425)">
					<stop  offset="0" style="stop-color:#AA80F9"/>
					<stop  offset="0.9964" style="stop-color:#6165D7"/>
				</linearGradient>
				<path style="opacity:0.3;fill:url(#SVGID_00000172432419059290134580000000610536048006098329_);" d="M1484.45,2854.107
					c-159.007,25.238-261.794,30.409-379.024-4.326c-163.663-48.494-275.012-150.583-336.791-218.672v512.392
					c0,34.612,28.455,61.244,63.075,59.191l1838.091-108.962c25.938-1.537,47.077-27.152,47.077-56.927v-180.167
					c-249.703-162.502-450.944-178.304-592.715-159.843C1949.682,2719.515,1851.105,2795.908,1484.45,2854.107z"/>
				<g style="opacity:0.3;">
					
						<linearGradient id="SVGID_00000173161851775669382640000005884750078143098555_" gradientUnits="userSpaceOnUse" x1="1005.7186" y1="2963.115" x2="1474.3405" y2="2963.115">
						<stop  offset="0" style="stop-color:#AA80F9"/>
						<stop  offset="0.9964" style="stop-color:#6165D7"/>
					</linearGradient>
					<path style="fill:url(#SVGID_00000173161851775669382640000005884750078143098555_);" d="M1459.78,3002.554l-438.487,20.604
						c-8.562,0.402-15.574-6.357-15.574-15.022v-71.39c0-8.664,7.013-16.03,15.574-16.368l438.487-17.311
						c8.012-0.317,14.56,6.272,14.56,14.64v68.949C1474.34,2995.023,1467.793,3002.178,1459.78,3002.554z"/>
					
						<linearGradient id="SVGID_00000098933371514075608320000009004227714183446955_" gradientUnits="userSpaceOnUse" x1="980.1155" y1="2766.5879" x2="1448.7405" y2="2766.5879" gradientTransform="matrix(2.1331 -0.005 0.0023 1 -1093.9875 4.7773)">
						<stop  offset="0" style="stop-color:#AA80F9"/>
						<stop  offset="0.9964" style="stop-color:#6165D7"/>
					</linearGradient>
					<path style="fill:url(#SVGID_00000098933371514075608320000009004227714183446955_);" d="M1971.717,2803.638l-935.293,22.787
						c-18.262,0.445-33.237-6.28-33.257-14.944l-0.167-71.391c-0.02-8.664,14.922-16.065,33.184-16.446l935.301-19.495
						c17.091-0.356,31.073,6.199,31.093,14.567l0.161,68.949C2002.758,2796.035,1988.807,2803.222,1971.717,2803.638z"/>
					
						<linearGradient id="SVGID_00000107587623488837666210000002425072550690106047_" gradientUnits="userSpaceOnUse" x1="1950.1053" y1="2925.3259" x2="2513.5183" y2="2925.3259">
						<stop  offset="0" style="stop-color:#AA80F9"/>
						<stop  offset="0.9964" style="stop-color:#6165D7"/>
					</linearGradient>
					<path style="fill:url(#SVGID_00000107587623488837666210000002425072550690106047_);" d="M2500.351,2960.037l-535.905,25.181
						c-7.884,0.37-14.341-6.129-14.341-14.443v-68.505c0-8.314,6.457-15.372,14.341-15.684l535.905-21.157
						c7.245-0.286,13.167,5.991,13.167,13.95v65.57C2513.518,2952.906,2507.596,2959.696,2500.351,2960.037z"/>
				</g>
				<g style="opacity:0.3;">
					
						<linearGradient id="SVGID_00000112608664343517173090000015707927792019370132_" gradientUnits="userSpaceOnUse" x1="1762.8024" y1="2293.2961" x2="2420.5259" y2="1313.1594">
						<stop  offset="0" style="stop-color:#AA80F9"/>
						<stop  offset="0.9964" style="stop-color:#6165D7"/>
					</linearGradient>
					<path style="opacity:0.6;fill:url(#SVGID_00000112608664343517173090000015707927792019370132_);" d="M2324.772,2122.305
						c0,6.055-4.635,10.838-10.356,10.682l-767.707-20.852c-6.048-0.165-10.953-5.349-10.953-11.579v-135.361
						c0-6.23,4.906-11.12,10.953-10.922l767.707,25.161c5.721,0.187,10.356,5.248,10.356,11.303V2122.305z"/>
					
						<linearGradient id="SVGID_00000006684395024487062800000004808908246025334418_" gradientUnits="userSpaceOnUse" x1="1856.6052" y1="2356.2427" x2="2514.3286" y2="1376.1063">
						<stop  offset="0" style="stop-color:#AA80F9"/>
						<stop  offset="0.9964" style="stop-color:#6165D7"/>
					</linearGradient>
					<path style="opacity:0.6;fill:url(#SVGID_00000006684395024487062800000004808908246025334418_);" d="M2324.772,2273.971
						c0,6.054-4.635,10.863-10.356,10.74l-767.707-16.597c-6.048-0.13-10.953-5.286-10.953-11.516v-37.601
						c0-6.229,4.906-11.163,10.953-11.021l767.707,18.238c5.721,0.135,10.356,5.154,10.356,11.21V2273.971z"/>
					
						<linearGradient id="SVGID_00000112590681816381915980000014162510742945405080_" gradientUnits="userSpaceOnUse" x1="1921.7889" y1="2399.9844" x2="2579.5112" y2="1419.8497">
						<stop  offset="0" style="stop-color:#AA80F9"/>
						<stop  offset="0.9964" style="stop-color:#6165D7"/>
					</linearGradient>
					<path style="opacity:0.6;fill:url(#SVGID_00000112590681816381915980000014162510742945405080_);" d="M2324.772,2412.846
						c0,6.056-4.635,10.888-10.356,10.793l-767.707-12.698c-6.048-0.1-10.953-5.231-10.953-11.462v-37.601
						c0-6.229,4.906-11.188,10.953-11.075l767.707,14.339c5.721,0.108,10.356,5.102,10.356,11.158V2412.846z"/>
				</g>
				<g>
					<polygon style="fill:#FFFFFF;" points="1245.926,2392.798 1146.748,2392.798 1146.748,1941.811 1245.926,1946.451 					"/>
					<polygon style="fill:#FFFFFF;" points="1405.094,2122.291 1405.094,2224.404 978.614,2216.75 978.614,2109.994 					"/>
				</g>
			</g>
		</g>
		
			<linearGradient id="SVGID_00000174581508106725145860000012233610768343769257_" gradientUnits="userSpaceOnUse" x1="1902.3301" y1="2592.9346" x2="2175.8367" y2="2592.9346">
			<stop  offset="0" style="stop-color:#AA80F9"/>
			<stop  offset="0.9964" style="stop-color:#6165D7"/>
		</linearGradient>
		<polygon style="opacity:0.3;fill:url(#SVGID_00000174581508106725145860000012233610768343769257_);" points="2175.837,3119.504 
			1902.33,3136.401 1902.33,2049.468 2175.837,2049.468 		"/>
		<g>
			<path style="fill:#97A6B7;" d="M2863.553,2046.318l-928.003-37.561c-20.224-0.635-35.528,21.99-33.22,40.711l140.87,1142.328
				c3.202,25.964,30.123,32.588,50.163,31.576l909.678-45.938c17.529-0.885,29.961-15.754,27.809-33.213L2899.482,2078.95
				C2897.329,2061.491,2881.262,2046.882,2863.553,2046.318z"/>
			<path style="fill:#D8DEE8;" d="M2878.367,2036.48l-930.345-29.437c-20.255-0.641-34.828,14.147-32.499,33.03l142.091,1152.228
				c2.329,18.884,20.51,33.357,40.56,32.33l920.897-47.177c17.559-0.9,30-15.904,27.828-33.514l-132.513-1074.558
				C2912.214,2051.771,2896.106,2037.041,2878.367,2036.48z"/>
			<path style="opacity:0.74;fill:#FFFFFF;" d="M2096.242,3208.972c-10.822,0.542-20.66-7.302-21.916-17.488l-141.929-1150.916
				c-1.256-10.186,6.626-18.201,17.556-17.867l930.224,28.452c9.584,0.293,18.327,8.277,19.501,17.797l132.654,1075.702
				c1.174,9.52-5.581,17.653-15.07,18.128L2096.242,3208.972z"/>
			<polygon style="fill:#FFFFFF;" points="2950.588,3131.094 2162.079,3168.636 2030.438,2101.151 2826.071,2121.375 			"/>
			<path style="opacity:0.3;fill:#97A6B7;" d="M2501.252,2130.282l-313.105,7.177l-1.68-69.733
				c-0.595-9.059,5.018-16.59,13.456-18.047l51.426-8.88c6.075-1.049,10.907-5.224,12.892-11.141l4.185-12.477l139.981,6.163
				L2501.252,2130.282z"/>
			
				<linearGradient id="SVGID_00000088113059807950975440000009517314472763017387_" gradientUnits="userSpaceOnUse" x1="2043.2559" y1="2020.0532" x2="2542.0781" y2="2020.0532" gradientTransform="matrix(1 0 0.1233 1 -118.6578 -1.000000e-04)">
				<stop  offset="0" style="stop-color:#444B8C"/>
				<stop  offset="0.9964" style="stop-color:#26264F"/>
			</linearGradient>
			<path style="fill:url(#SVGID_00000088113059807950975440000009517314472763017387_);" d="M2667.71,2082.011
				c-2.543-8.08-9.894-13.672-18.311-13.921l-52.037-1.54c-23.519-0.696-42.92-19.045-44.969-42.607l-4.748-54.611
				c-0.878-10.101-9.212-18.037-19.357-18.419l-16.941-0.638c-12.897-0.486-22.781-11.41-22.571-24.288
				c0.366-22.512-17.611-41.494-40.342-42.454c-22.85-0.964-41.841,16.638-42.413,39.336c-0.085,3.372-0.822,6.719-2.322,9.723
				c-4.192,8.395-12.758,13.148-21.753,12.809l-17.187-0.647c-10.398-0.392-19.309,7.004-20.673,17.167l-7.378,55.005
				c-3.188,23.761-24.075,41.197-48.56,40.473l-54.771-1.622c-8.938-0.264-17.012,5.044-20.098,13.221l-24.598,65.185
				c-2.01,5.328,1.976,11.02,7.809,11.156l483.666,11.273c5.444,0.127,9.397-5.185,7.752-10.414L2667.71,2082.011z
				 M2447.38,1930.682c-6.701-0.261-12.018-5.869-11.87-12.526c0.148-6.658,5.706-11.836,12.409-11.563
				c6.696,0.272,11.999,5.881,11.849,12.528C2459.618,1925.766,2454.075,1930.942,2447.38,1930.682z"/>
			<path style="fill:#97A6B7;" d="M2670.825,2083.46c-2.543-8.081-9.897-13.675-18.317-13.925l-52.055-1.545
				c-23.526-0.698-42.934-19.052-44.982-42.618l-4.748-54.62c-0.879-10.103-9.215-18.04-19.364-18.423l-16.948-0.64
				c-12.901-0.487-22.788-11.414-22.578-24.293c0.367-22.515-17.616-41.502-40.354-42.464
				c-22.858-0.967-41.855,16.637-42.428,39.339c-0.085,3.373-0.823,6.72-2.323,9.724c-4.193,8.396-12.762,13.149-21.76,12.809
				l-17.193-0.649c-10.401-0.392-19.315,7.003-20.68,17.168l-7.382,55.013c-3.189,23.764-24.084,41.201-48.577,40.474l-54.789-1.626
				c-8.94-0.265-17.018,5.044-20.105,13.221l-24.608,65.192c-2.011,5.328,1.977,11.022,7.812,11.158l483.829,11.315
				c5.446,0.127,9.4-5.185,7.755-10.414L2670.825,2083.46z M2450.423,1932.091c-6.704-0.261-12.022-5.87-11.874-12.529
				c0.148-6.659,5.708-11.837,12.413-11.564c6.698,0.272,12.003,5.882,11.853,12.53
				C2462.666,1927.175,2457.12,1932.351,2450.423,1932.091z"/>
			<g>
				<path style="opacity:0.5;fill:#FFFFFF;" d="M2590.276,2115.005c-46.886-25.891-77.91-6.787-108.547-36.128
					c-32.693-31.309-18.446-73.384-50.607-92.537c-20.532-12.227-36.059-0.806-58.458-3.79c-8.187-1.09-17.144-4.092-26.796-10.088
					l-6.155,45.875c-3.189,23.765-24.084,41.201-48.577,40.475l-54.789-1.626c-8.94-0.265-17.018,5.044-20.105,13.221
					l-24.607,65.192c-2.011,5.327,1.977,11.022,7.812,11.157l438.58,10.257C2624.594,2139.62,2608.82,2125.244,2590.276,2115.005z"
					/>
			</g>
			<g>
				<g>
					<path style="fill:#D8DEE8;" d="M2263.084,2617.311l7.459,60.485l-64.055,0.817l-7.504-60.848L2263.084,2617.311
						L2263.084,2617.311z M2269.502,2609.577l-78.766,0.593l9.395,76.184l78.72-0.969L2269.502,2609.577L2269.502,2609.577z"/>
					<polygon style="fill:#D8DEE8;" points="2820.406,2678.719 2308.02,2685.027 2298.688,2609.357 2811.377,2605.495 					"/>
				</g>
				<g>
					<path style="fill:#D8DEE8;" d="M2276.712,2727.822l7.458,60.478l-64,1.263l-7.503-60.841L2276.712,2727.822L2276.712,2727.822z
						 M2283.124,2720.034l-78.698,1.141l9.395,76.184l78.652-1.516L2283.124,2720.034L2283.124,2720.034z"/>
					<polygon style="fill:#D8DEE8;" points="2833.563,2785.41 2321.616,2795.281 2312.285,2719.611 2824.534,2712.186 					"/>
				</g>
				<g>
					<path style="fill:#D8DEE8;" d="M2290.34,2838.335l7.457,60.469l-63.946,1.708l-7.501-60.832L2290.34,2838.335L2290.34,2838.335
						z M2296.745,2830.491l-78.631,1.688l9.395,76.184l78.585-2.064L2296.745,2830.491L2296.745,2830.491z"/>
					<polygon style="fill:#D8DEE8;" points="2846.72,2892.1 2335.212,2905.535 2325.881,2829.865 2837.69,2818.877 					"/>
				</g>
				<g>
					<path style="fill:#D8DEE8;" d="M2303.969,2948.848l7.455,60.457l-63.89,2.154l-7.5-60.82L2303.969,2948.848L2303.969,2948.848z
						 M2310.366,2940.948l-78.564,2.235l9.395,76.184l78.517-2.611L2310.366,2940.948L2310.366,2940.948z"/>
					<polygon style="fill:#D8DEE8;" points="2859.877,2998.791 2348.809,3015.789 2339.477,2940.119 2850.847,2925.567 					"/>
				</g>
				<path style="fill:#D8DEE8;" d="M2182.497,2543.36c-0.961-0.013-1.931-0.419-2.703-1.133c-0.787-0.728-1.301-1.713-1.427-2.737
					l-43.838-355.486c-0.127-1.03,0.149-2.021,0.765-2.745c0.616-0.725,1.531-1.12,2.508-1.105l318.601,6.012
					c2.06,0.039,3.911,1.754,4.171,3.865l42.985,348.567c0.262,2.127-1.188,3.839-3.259,3.845l-317.745,0.917
					C2182.535,2543.361,2182.516,2543.361,2182.497,2543.36z M2142.313,2187.871l42.894,347.832l310.284-1.034l-42.026-340.789
					L2142.313,2187.871z M2499.76,2538.55l0.019,0L2499.76,2538.55z"/>
				<polygon style="fill:#D8DEE8;" points="2766.412,2240.875 2513.54,2236.784 2507.898,2191.035 2760.862,2195.864 				"/>
				<polygon style="fill:#D8DEE8;" points="2778.747,2340.897 2526.077,2338.45 2523.256,2315.575 2775.972,2318.392 				"/>
				<polygon style="fill:#D8DEE8;" points="2783.321,2377.989 2530.727,2376.151 2527.906,2353.276 2780.546,2355.484 				"/>
				<polygon style="fill:#D8DEE8;" points="2787.895,2415.08 2535.376,2413.852 2532.555,2390.977 2785.12,2392.575 				"/>
				<g>
					
						<linearGradient id="SVGID_00000175309593037905248640000017704420242135090817_" gradientUnits="userSpaceOnUse" x1="2180.9053" y1="2197.6318" x2="2103.4976" y2="2334.3855" gradientTransform="matrix(1 0 0.1233 1 -118.6578 -1.000000e-04)">
						<stop  offset="0" style="stop-color:#444B8C"/>
						<stop  offset="0.9964" style="stop-color:#26264F"/>
					</linearGradient>
					<path style="fill:url(#SVGID_00000175309593037905248640000017704420242135090817_);" d="M2271.489,2332.234
						c-2.479-1.95-6.888-5.419-9.512-11.119c-3.653-7.936-0.279-12.446-2.049-21.019c-1.741-8.431-6.399-10.829-12.258-20.103
						c-3.352-5.305-15.407-24.387-9.833-40.048c5.005-14.06,23.39-23.017,37.292-18.794c11.687,3.551,13.206,14.294,25.832,16.647
						c10.411,1.94,12.961-4.705,23.496-1.715c3.713,1.054,8.917,4.981,19.316,12.828c8.051,6.075,12.109,9.172,13.841,12.199
						c4.614,8.063,2.545,16.581,1.502,20.875c-2.544,10.474-7.371,10.595-9.436,19.182c-2.848,11.84,5.007,17.066,3.094,25.087
						C2348.082,2345.931,2292.507,2348.768,2271.489,2332.234z"/>
					
						<linearGradient id="SVGID_00000008834626388970023740000016290926010487518616_" gradientUnits="userSpaceOnUse" x1="2216.0608" y1="2300.2893" x2="2097.7727" y2="2570.1345" gradientTransform="matrix(1 0 0.1233 1 -118.6578 -1.000000e-04)">
						<stop  offset="0" style="stop-color:#AA80F9"/>
						<stop  offset="0.9964" style="stop-color:#6165D7"/>
					</linearGradient>
					<polygon style="fill:url(#SVGID_00000008834626388970023740000016290926010487518616_);" points="2192.662,2527.042 
						2175.837,2390.608 2220.667,2384.199 2418.154,2383.066 2469.912,2391.506 2486.542,2526.357 					"/>
					
						<linearGradient id="SVGID_00000011733163822799714620000013820568020618708108_" gradientUnits="userSpaceOnUse" x1="2112.6194" y1="2436.3633" x2="2290.834" y2="2138.4775" gradientTransform="matrix(1 0 0.1233 1 -118.6578 -1.000000e-04)">
						<stop  offset="0" style="stop-color:#FFC444"/>
						<stop  offset="0.9964" style="stop-color:#F36F56"/>
					</linearGradient>
					<path style="fill:url(#SVGID_00000011733163822799714620000013820568020618708108_);" d="M2319.831,2296.818
						c4.896,21.142,9.79,42.279,14.683,63.409c1.325,5.724,6.597,10.241,12.549,10.758c23.52,2.041,47.709,10.061,71.091,12.081
						l-99.22,31.912l-98.268-30.779c24.326-3.35,44.189-8.039,61.775-13.38c4.511-1.37,7.412-5.289,7.402-9.998
						c-0.026-13.057-0.052-26.113-0.079-39.165L2319.831,2296.818z"/>
					<g>
						
							<linearGradient id="SVGID_00000049914409789463329650000018421585431277026737_" gradientUnits="userSpaceOnUse" x1="3763.4985" y1="1645.4176" x2="3767.6284" y2="1472.7146" gradientTransform="matrix(1.004 0.2054 -0.0847 0.9787 -1296.3022 -42.3145)">
							<stop  offset="0" style="stop-color:#FFC444"/>
							<stop  offset="0.9964" style="stop-color:#F36F56"/>
						</linearGradient>
						<path style="fill:url(#SVGID_00000049914409789463329650000018421585431277026737_);" d="M2353.287,2311.063
							c-0.635,6.852-7.058,15.091-10.011,14.473c-2.954-0.618-4.834-6.679-4.197-13.537c0.637-6.857,3.548-11.91,6.501-11.288
							C2348.533,2301.333,2353.923,2304.213,2353.287,2311.063z"/>
						
							<linearGradient id="SVGID_00000065754421417842503160000012993643439620338088_" gradientUnits="userSpaceOnUse" x1="-1162.8859" y1="2696.4258" x2="-1158.7148" y2="2522.0054" gradientTransform="matrix(-0.9534 0.2054 0.3261 0.9787 294.9615 -42.3145)">
							<stop  offset="0" style="stop-color:#FFC444"/>
							<stop  offset="0.9964" style="stop-color:#F36F56"/>
						</linearGradient>
						<path style="fill:url(#SVGID_00000065754421417842503160000012993643439620338088_);" d="M2258.738,2309.994
							c2.352,6.925,10.911,15.367,13.746,14.807c2.834-0.56,3.228-6.622,0.88-13.54c-2.349-6.92-6.552-12.081-9.388-11.526
							C2261.138,2300.291,2256.386,2303.067,2258.738,2309.994z"/>
						
							<linearGradient id="SVGID_00000031906931037482355160000014886566786000585380_" gradientUnits="userSpaceOnUse" x1="2138.6279" y1="2339.9265" x2="2142.7715" y2="2166.6482" gradientTransform="matrix(1 0 0.1233 1 -118.6578 -1.000000e-04)">
							<stop  offset="0" style="stop-color:#FFC444"/>
							<stop  offset="0.9964" style="stop-color:#F36F56"/>
						</linearGradient>
						<path style="fill:url(#SVGID_00000031906931037482355160000014886566786000585380_);" d="M2344.707,2294.809
							c3.818,30.963-9.871,67.118-32.338,66.937c-22.53-0.182-45.342-36.82-49.18-67.942c-3.838-31.122,12.767-44.813,35.317-44.471
							C2320.993,2249.674,2340.889,2263.847,2344.707,2294.809z"/>
					</g>
					
						<linearGradient id="SVGID_00000074404558829941815470000002133886310129800351_" gradientUnits="userSpaceOnUse" x1="2171.0813" y1="2225.6938" x2="2124.7737" y2="2307.5037" gradientTransform="matrix(1 0 0.1233 1 -118.6578 -1.000000e-04)">
						<stop  offset="0" style="stop-color:#444B8C"/>
						<stop  offset="0.9964" style="stop-color:#26264F"/>
					</linearGradient>
					<path style="fill:url(#SVGID_00000074404558829941815470000002133886310129800351_);" d="M2251.038,2275.251
						c1.313,5.415,5.718,14.932,13.964,17.982c7.975,2.95,14.576-1.988,47.373-14.382c5.703-2.155,8.156-3.009,11.402-2.064
						c14.511,4.221,16.291,36.083,21.337,36.333c4.018,0.2,10.449-19.627,1.622-38.79c-8.195-17.79-25.454-26.146-29.64-28.104
						c-1.85-0.865-30.168-13.639-50.879-0.227C2263.207,2247.948,2247.105,2259.033,2251.038,2275.251z"/>
				</g>
				
					<linearGradient id="SVGID_00000170238620367989847770000002659967021539545003_" gradientUnits="userSpaceOnUse" x1="2000.7334" y1="2640.9363" x2="2065.6462" y2="2640.9363" gradientTransform="matrix(1 0 0.1233 1 -118.6578 -1.000000e-04)">
					<stop  offset="0" style="stop-color:#FF9085"/>
					<stop  offset="1" style="stop-color:#FB6FBB"/>
				</linearGradient>
				<path style="fill:url(#SVGID_00000170238620367989847770000002659967021539545003_);" d="M2237.509,2674.229
					c-2.04,0.023-4.062-0.976-5.34-2.643l-23.609-30.798c-2.036-2.656-1.602-6.164,0.968-7.833c2.57-1.669,6.303-0.868,8.336,1.787
					l17.463,22.798l22.617-47.057c1.301-2.71,4.777-3.643,7.762-2.083c2.983,1.559,4.346,5.018,3.046,7.728l-26.521,55.238
					c-0.83,1.73-2.598,2.816-4.659,2.862C2237.552,2674.228,2237.53,2674.228,2237.509,2674.229z"/>
				
					<linearGradient id="SVGID_00000121275389775442085570000001156384167181172649_" gradientUnits="userSpaceOnUse" x1="2000.7375" y1="2865.1372" x2="2065.6504" y2="2865.1372" gradientTransform="matrix(1 0 0.1233 1 -118.6578 -1.000000e-04)">
					<stop  offset="0" style="stop-color:#FF9085"/>
					<stop  offset="1" style="stop-color:#FB6FBB"/>
				</linearGradient>
				<path style="fill:url(#SVGID_00000121275389775442085570000001156384167181172649_);" d="M2265.186,2898.664
					c-2.036,0.052-4.055-0.92-5.331-2.572l-23.574-30.52c-2.033-2.632-1.601-6.152,0.965-7.86c2.565-1.708,6.292-0.958,8.322,1.673
					l17.438,22.592l22.567-47.457c1.298-2.733,4.768-3.717,7.749-2.196c2.979,1.52,4.34,4.966,3.042,7.698l-26.463,55.708
					c-0.829,1.745-2.593,2.858-4.65,2.932C2265.229,2898.663,2265.207,2898.663,2265.186,2898.664z"/>
				
					<linearGradient id="SVGID_00000100360379446761972360000007356494240262498490_" gradientUnits="userSpaceOnUse" x1="2000.7356" y1="2753.54" x2="2065.6484" y2="2753.54" gradientTransform="matrix(1 0 0.1233 1 -118.6578 -1.000000e-04)">
					<stop  offset="0" style="stop-color:#FF9085"/>
					<stop  offset="1" style="stop-color:#FB6FBB"/>
				</linearGradient>
				<path style="fill:url(#SVGID_00000100360379446761972360000007356494240262498490_);" d="M2251.41,2786.95
					c-2.038,0.038-4.058-0.948-5.335-2.607l-23.591-30.659c-2.035-2.644-1.602-6.158,0.966-7.846
					c2.567-1.688,6.297-0.913,8.328,1.73l17.45,22.694l22.592-47.258c1.3-2.722,4.773-3.68,7.756-2.14
					c2.981,1.539,4.343,4.992,3.044,7.712l-26.492,55.474c-0.83,1.737-2.596,2.837-4.655,2.897
					C2251.452,2786.949,2251.431,2786.949,2251.41,2786.95z"/>
				
					<linearGradient id="SVGID_00000119086313826960260620000010612972823577043130_" gradientUnits="userSpaceOnUse" x1="2000.7395" y1="2967.0828" x2="2065.6523" y2="2967.0828" gradientTransform="matrix(1 0 0.1233 1 -118.6578 -1.000000e-04)">
					<stop  offset="0" style="stop-color:#FF9085"/>
					<stop  offset="1" style="stop-color:#FB6FBB"/>
				</linearGradient>
				<path style="fill:url(#SVGID_00000119086313826960260620000010612972823577043130_);" d="M2277.771,3000.716
					c-2.034,0.065-4.052-0.895-5.327-2.54l-23.558-30.393c-2.032-2.622-1.601-6.147,0.963-7.873
					c2.563-1.726,6.287-0.999,8.315,1.621l17.426,22.498l22.545-47.639c1.297-2.744,4.764-3.75,7.743-2.247
					c2.976,1.501,4.337,4.941,3.04,7.684l-26.437,55.921c-0.828,1.751-2.592,2.877-4.646,2.965
					C2277.813,3000.715,2277.792,3000.715,2277.771,3000.716z"/>
			</g>
		</g>
	</g>
</g>
</svg>
